<svg width="16" height="25" viewBox="0 0 16 25" fill="none" xmlns="http://www.w3.org/2000/svg">
<path d="M8.20009 0.000579803C8.39229 -0.00335338 8.57852 0.06743 8.71958 0.198042C8.86064 0.328654 8.94552 0.508906 8.95637 0.700844V1.85628C10.9755 1.99172 12.9163 2.6904 14.5585 3.87304C14.8386 4.07612 14.9997 4.25118 14.9997 4.53829C14.9784 4.7376 14.8817 4.92122 14.7293 5.05145C14.577 5.18167 14.3805 5.24863 14.1804 5.23855C13.972 5.24754 13.7684 5.17466 13.6131 5.03548C12.2402 3.98705 10.6046 3.33765 8.88636 3.15877V11.2678C13.6762 12.1922 15.6929 13.8378 15.6929 16.6599C15.6929 19.72 12.8919 21.8768 8.94938 21.9959V24.2437C8.94938 24.4443 8.86968 24.6367 8.72785 24.7785C8.58602 24.9203 8.39366 25 8.19308 25C7.9925 25 7.80014 24.9203 7.65831 24.7785C7.51648 24.6367 7.4368 24.4443 7.4368 24.2437V21.9679C4.83916 21.801 2.35986 20.8211 0.350132 19.1668C0.244296 19.1057 0.156287 19.018 0.0948631 18.9123C0.0334389 18.8067 0.000737638 18.6868 0 18.5646C0.0224305 18.3709 0.1156 18.1923 0.261637 18.063C0.407675 17.9338 0.596296 17.863 0.791302 17.8643C0.999193 17.8582 1.20174 17.9307 1.35851 18.0674C3.06824 19.582 5.22323 20.501 7.49983 20.6864V12.4303C2.77304 11.4779 0.819297 9.89532 0.819297 7.01023C0.819297 4.12514 3.62036 1.87729 7.4368 1.79326V0.693835C7.44767 0.501259 7.53378 0.320671 7.67656 0.19099C7.81934 0.0613083 8.00736 -0.00707463 8.20009 0.000579803ZM7.49983 10.9597V3.08875C4.44667 3.14477 2.42992 4.8184 2.42992 6.89118C2.43692 8.85192 3.4453 10.0634 7.50684 10.9597H7.49983ZM8.90035 12.7174V20.6794C12.0515 20.6164 14.1033 18.9497 14.1033 16.7579C14.0963 14.7692 12.9899 13.5577 8.89335 12.7174H8.90035Z" fill="#DBDBDB"/>
</svg>
