<svg width="10" height="18" viewBox="0 0 10 18" fill="none" xmlns="http://www.w3.org/2000/svg">
<path d="M0 12.1332C0.0992204 12.842 3.06166 17.803 6.33593 17.9802C7.4061 18.0298 7.93763 12.2183 7.93763 12.2183L8.07229 11.8001L10 5.91779L3.3735 0.708717L2.40964 0C2.40964 0 1.9915 1.64422 1.48831 3.69242C1.48831 3.79164 1.4387 3.88377 1.41743 3.98299C1.39617 4.08221 1.35365 4.20978 1.33239 4.31609C1.25443 4.62083 1.16939 4.93267 1.09851 5.25159C1.02764 5.57051 0.985117 5.71934 0.935506 5.96031L0.772505 6.71155C0.391381 8.49899 0.133272 10.3105 0 12.1332Z" fill="#D3766A"/>
</svg>
