<svg width="6" height="8" viewBox="0 0 6 8" fill="none" xmlns="http://www.w3.org/2000/svg">
<path d="M4.67842 6.36957L0.34349 7.32782C0.313535 7.34102 0.281159 7.34783 0.248425 7.34783C0.215691 7.34783 0.183316 7.34102 0.153361 7.32782C0.119417 7.31194 0.0892067 7.28906 0.0647138 7.26069C0.0402208 7.23233 0.0219972 7.19911 0.0112285 7.16321C0.00045975 7.12732 -0.00261116 7.08955 0.00222337 7.05239C0.0070579 7.01523 0.0196824 6.97951 0.0392766 6.94757L3.39315 0.156164C3.40922 0.122379 3.43205 0.092253 3.46022 0.0676332C3.48839 0.0430133 3.52131 0.0244248 3.55695 0.0130222C3.59258 0.00161961 3.63017 -0.00235487 3.6674 0.00133645C3.70463 0.00502777 3.74071 0.0163013 3.77341 0.034479C3.82291 0.0649909 3.86458 0.106665 3.89509 0.156164C3.89509 0.156164 3.89509 0.156166 3.89509 0.194192V0.23222L5.11192 5.72314L5.64428 5.60145C5.68123 5.59238 5.71962 5.5907 5.75723 5.5965C5.79483 5.6023 5.83092 5.61547 5.86343 5.63526C5.89593 5.65504 5.92421 5.68105 5.94663 5.71179C5.96906 5.74253 5.98519 5.7774 5.99411 5.8144C6.0018 5.85141 6.00196 5.88959 5.99457 5.92666C5.98718 5.96373 5.9724 5.99893 5.9511 6.03016C5.92981 6.06139 5.90243 6.08801 5.87062 6.10843C5.83881 6.12885 5.80322 6.14266 5.76596 6.14902L5.23359 6.27071L5.53781 7.64724C5.54686 7.71895 5.5287 7.79145 5.48693 7.85043C5.44516 7.90942 5.3828 7.95061 5.31216 7.96589C5.24151 7.98116 5.1677 7.96942 5.10529 7.93295C5.04289 7.89649 4.9964 7.83796 4.97502 7.76891L4.67842 6.36957ZM4.55674 5.822L3.52244 1.13723L0.769376 6.68138L4.55674 5.822Z" fill="#F8F8F8"/>
</svg>
