<svg width="14" height="35" viewBox="0 0 14 35" fill="none" xmlns="http://www.w3.org/2000/svg">
<path d="M13.0441 28.6846C12.3647 27.7121 11.5581 26.8349 10.6458 26.0766C9.70569 25.2462 8.84647 24.3284 8.07972 23.3357C4.98922 19.2034 3.82854 14.0572 2.70981 9.12078C2.08329 6.02716 1.21357 2.98782 0.108756 0.0310759C0.108756 -0.0388449 -0.0240999 0.0310759 0.00386847 0.0310759C2.03856 5.01643 2.41613 10.4563 3.89146 15.5954C4.50707 17.9112 5.4363 20.1319 6.65334 22.196C7.25555 23.1972 7.9584 24.1343 8.75097 24.9928C9.56904 25.8668 10.52 26.608 11.387 27.44C12.4087 28.3315 13.1597 29.492 13.5545 30.7892C13.7328 31.4953 13.769 32.2298 13.661 32.95C13.5529 33.6702 13.3029 34.3618 12.9252 34.9845C12.9252 34.9845 12.9252 35.0194 12.9602 34.9845C13.5539 34.0443 13.876 32.9582 13.8909 31.8464C13.9057 30.7345 13.6126 29.6403 13.0441 28.6846Z" fill="#263238"/>
</svg>
