<svg width="20" height="9" viewBox="0 0 20 9" fill="none" xmlns="http://www.w3.org/2000/svg">
<path d="M19.7724 8.58297L10.1322 8.78855L5.24229 8.86932C3.60499 8.90603 1.9677 8.86932 0.330397 8.91337H0V8.58297V0.367107V0H0.359766L10.0808 0.0440511C13.3187 0.0440511 16.5565 0.132167 19.8018 0.168877H20V0.367107C20 1.76211 19.9339 3.14978 19.9046 4.51541L19.7724 8.58297ZM19.7724 8.58297L19.6623 4.43466C19.6623 3.06168 19.5815 1.71072 19.5668 0.367107L19.7724 0.565337C16.5272 0.602048 13.2893 0.682821 10.0514 0.690163L0.359766 0.734214L0.719533 0.367107L0.653453 8.58297L0.330397 8.25256C1.93098 8.25256 3.52423 8.25256 5.13216 8.29661L9.96329 8.37739L19.7724 8.58297Z" fill="#EBEBEB"/>
</svg>
