<svg width="5" height="8" viewBox="0 0 5 8" fill="none" xmlns="http://www.w3.org/2000/svg">
<path d="M1.37941 0.0393276C1.7105 -0.0353585 2.05674 -0.00312409 2.36837 0.131383C2.67999 0.26589 2.94094 0.495742 3.11369 0.787905C3.28644 1.08007 3.3621 1.41949 3.32978 1.75736C3.29747 2.09523 3.15884 2.41415 2.93384 2.66827C3.50337 2.76863 4.0205 3.06333 4.39713 3.50218C4.77376 3.94102 4.9866 4.49687 4.99939 5.07503C5.01219 5.6532 4.82413 6.21791 4.46728 6.67299C4.11043 7.12806 3.60684 7.44536 3.04231 7.57081C2.47778 7.69626 1.88721 7.62211 1.37121 7.361C0.855211 7.09989 0.445699 6.66797 0.212419 6.13881C-0.0208616 5.60964 -0.0634593 5.01597 0.0918566 4.45891C0.247173 3.90185 0.590801 3.41587 1.06422 3.08374C0.837221 2.9767 0.637805 2.819 0.481327 2.62278C0.32485 2.42657 0.215477 2.19706 0.161636 1.95193C0.115209 1.74635 0.10993 1.53361 0.146093 1.32597C0.182256 1.11833 0.259154 0.919904 0.372352 0.742117C0.485549 0.564331 0.632815 0.410698 0.805653 0.290081C0.978492 0.169464 1.17349 0.0842425 1.37941 0.0393276ZM2.93384 7.06655C3.31568 6.98226 3.66396 6.78663 3.93462 6.50441C4.20528 6.22218 4.38618 5.86603 4.45443 5.481C4.52267 5.09596 4.47519 4.69935 4.31802 4.34129C4.16084 3.98323 3.90104 3.67982 3.57143 3.46943C3.24182 3.25904 2.85721 3.15112 2.46626 3.15931C2.07531 3.16751 1.69557 3.29144 1.37506 3.51546C1.05455 3.73947 0.807669 4.0535 0.665635 4.41782C0.523601 4.78215 0.492805 5.18042 0.577121 5.56225C0.631355 5.8167 0.735635 6.05782 0.883893 6.2716C1.03215 6.48538 1.22141 6.66756 1.44071 6.80754C1.66 6.94752 1.90495 7.0425 2.16128 7.08696C2.41761 7.13143 2.68021 7.12448 2.93384 7.06655ZM1.95964 2.66827C2.23913 2.60335 2.48169 2.43074 2.63461 2.18795C2.78753 1.94516 2.83843 1.65182 2.77624 1.37171C2.7145 1.09338 2.54474 0.850984 2.30427 0.697838C2.06381 0.544693 1.77235 0.493343 1.49403 0.555088C1.2157 0.616832 0.973293 0.786617 0.820147 1.02708C0.667001 1.26755 0.615652 1.559 0.677396 1.83733C0.73925 2.11643 0.908396 2.36 1.1483 2.51547C1.3882 2.67094 1.67962 2.72582 1.95964 2.66827Z" fill="#F8F8F8"/>
</svg>
