<svg width="22" height="37" viewBox="0 0 22 37" fill="none" xmlns="http://www.w3.org/2000/svg">
<path d="M8.84024 0.00637809C9.11236 -0.023866 9.38546 0.0542431 9.60043 0.223816C9.8154 0.39339 9.95495 0.640783 9.9889 0.912471L10.1887 2.62479C12.9983 2.51184 15.7771 3.24507 18.1652 4.72951C18.3522 4.8102 18.5157 4.93691 18.6404 5.09785C18.7652 5.25879 18.8472 5.4487 18.8787 5.64988C18.9066 5.93928 18.8186 6.22795 18.634 6.45261C18.4495 6.67728 18.1834 6.81964 17.8941 6.84851C17.7527 6.87044 17.6083 6.86341 17.4697 6.82784C17.3312 6.79228 17.2012 6.72892 17.0879 6.64161C15.0841 5.31546 12.7343 4.60829 10.3314 4.60823L11.7583 16.6016C18.4292 17.208 21.4543 19.3341 21.9466 23.5293C22.4745 28.0741 19.0428 31.7342 13.7061 32.5261L14.0913 35.8723C14.1144 36.1406 14.032 36.4073 13.8615 36.6158C13.691 36.8243 13.446 36.9581 13.1784 36.9888C12.9108 37.0194 12.6419 36.9445 12.4286 36.78C12.2154 36.6155 12.0748 36.3743 12.0366 36.1077L11.6441 32.7259C8.02506 32.8778 4.45979 31.81 1.52008 29.6937C1.36318 29.6101 1.22874 29.49 1.12814 29.3434C1.02754 29.1968 0.963746 29.0282 0.942173 28.8518C0.920804 28.5693 1.00656 28.2891 1.1824 28.067C1.35823 27.8449 1.61125 27.6972 1.89109 27.6531C2.17747 27.6165 2.4668 27.6933 2.69729 27.8672C5.21101 29.8198 8.3191 30.85 11.5015 30.7853L10.0745 18.5779C3.48212 17.9144 0.556902 15.8667 0.0503421 11.5859C-0.456218 7.30512 2.9042 3.51663 8.14103 2.78176L7.95555 1.14792C7.92688 0.880186 8.003 0.611765 8.16794 0.398938C8.33289 0.186112 8.57382 0.0454213 8.84024 0.00637809ZM9.79628 16.4161L8.43356 4.71524C4.28832 5.29315 1.83401 8.09706 2.19788 11.1792C2.54034 14.0688 4.1171 15.7097 9.79628 16.3947V16.4161ZM11.9937 18.8062L13.3707 30.6283C17.6515 30.0433 20.1415 27.2322 19.7562 23.9788C19.4138 21.0036 17.7015 19.3769 11.9937 18.7848V18.8062Z" fill="#B6FF9C"/>
</svg>
