<svg width="13" height="19" viewBox="0 0 13 19" fill="none" xmlns="http://www.w3.org/2000/svg">
<path d="M8.37304 0.0138833C8.51089 0.0412293 8.63271 0.121088 8.71277 0.236585C8.79283 0.352083 8.82486 0.494179 8.8021 0.632856L8.64033 1.5402C10.0442 1.91798 11.3032 2.70668 12.2557 3.80507C12.3363 3.87279 12.398 3.96016 12.435 4.05873C12.472 4.15731 12.4829 4.26375 12.4667 4.36777C12.452 4.44414 12.4217 4.51664 12.3776 4.5807C12.3335 4.64477 12.2767 4.69899 12.2106 4.73997C12.1445 4.78094 12.0706 4.80778 11.9936 4.81878C11.9166 4.82977 11.8382 4.82469 11.7633 4.80386C11.6897 4.79497 11.6189 4.77024 11.5558 4.73139C11.4926 4.69254 11.4387 4.64048 11.3975 4.57878C10.6069 3.62167 9.55667 2.91334 8.37304 2.53899L7.22654 8.67944C10.4269 10.0088 11.6015 11.4929 11.2006 13.6664C10.7645 15.9945 8.50668 17.2747 5.74946 16.8527L5.43294 18.5618C5.40682 18.7018 5.3262 18.8256 5.2088 18.906C5.0914 18.9865 4.94685 19.017 4.80694 18.9909C4.66703 18.9648 4.54323 18.8842 4.46276 18.7668C4.3823 18.6494 4.35176 18.5048 4.37788 18.3649L4.70143 16.6346C2.89234 16.1487 1.29629 15.0747 0.16467 13.582C0.0998848 13.5178 0.0518852 13.4387 0.024899 13.3516C-0.0020872 13.2645 -0.00723155 13.1721 0.00992696 13.0826C0.0420305 12.9402 0.126265 12.8151 0.246034 12.7318C0.365804 12.6485 0.512431 12.613 0.657035 12.6324C0.730004 12.6434 0.800004 12.669 0.862849 12.7077C0.925695 12.7463 0.980092 12.7973 1.02279 12.8575C1.96383 14.2143 3.34172 15.2074 4.92651 15.671L6.09411 9.42503C2.93596 8.08862 1.80353 6.61153 2.21149 4.43107C2.61945 2.25061 4.87024 0.914202 7.55713 1.32216L7.71187 0.492172C7.71893 0.415191 7.74238 0.340617 7.78065 0.273452C7.81893 0.206288 7.87114 0.148091 7.93377 0.102782C7.9964 0.0574721 8.06801 0.0260942 8.14378 0.0107601C8.21954 -0.00457393 8.29772 -0.0035064 8.37304 0.0138833ZM6.34029 8.25743L7.45162 2.24358C5.3415 1.88486 3.6745 2.89771 3.37909 4.4803C3.08367 6.06289 3.6323 7.04762 6.34029 8.25743ZM7.04366 9.77672L5.91827 15.8257C8.11983 16.1915 9.77979 15.1857 10.0963 13.5187C10.3847 12.0064 9.78682 10.9373 7.0507 9.77672H7.04366Z" fill="black"/>
</svg>
