<svg width="5" height="8" viewBox="0 0 5 8" fill="none" xmlns="http://www.w3.org/2000/svg">
<path d="M0.0835309 7.16181C0.0570666 7.1356 0.0360685 7.10442 0.0217316 7.07004C0.00739478 7.03566 0 6.99879 0 6.96154C0 6.92429 0.00739478 6.88742 0.0217316 6.85304C0.0360685 6.81866 0.0570666 6.78748 0.0835309 6.76127C0.138994 6.7069 0.213562 6.67645 0.291226 6.67645C0.368891 6.67645 0.443458 6.7069 0.498922 6.76127C0.696624 6.95909 0.931368 7.116 1.18974 7.22307C1.44811 7.33013 1.72504 7.38524 2.00472 7.38524C2.2844 7.38524 2.56133 7.33013 2.8197 7.22307C3.07807 7.116 3.31282 6.95909 3.51052 6.76127C3.7075 6.56761 3.86404 6.33673 3.971 6.08204C4.07797 5.82736 4.13323 5.55396 4.1336 5.27772C4.1376 4.99705 4.08527 4.71842 3.97969 4.45833C3.87412 4.19823 3.71747 3.96195 3.51898 3.76346C3.3205 3.56497 3.08421 3.40832 2.82412 3.30275C2.56402 3.19718 2.28539 3.14484 2.00472 3.14884C1.72809 3.151 1.45461 3.20781 1.20002 3.31601C0.945417 3.42422 0.714715 3.58166 0.521174 3.77933C0.496115 3.80774 0.465293 3.8305 0.430762 3.84608C0.396231 3.86167 0.35879 3.86974 0.320904 3.86974C0.283017 3.86974 0.245554 3.86167 0.211023 3.84608C0.176492 3.8305 0.14567 3.80774 0.120611 3.77933C0.0862578 3.75922 0.060036 3.72773 0.0464514 3.69032C0.0436044 3.67812 0.0436044 3.66544 0.0464514 3.65324C0.0385747 3.62409 0.0385747 3.59338 0.0464514 3.56423C0.0464514 3.56423 0.0464514 3.52713 0.0464514 3.50488L0.42474 0.278159C0.424879 0.238099 0.435166 0.198724 0.454621 0.163705C0.474076 0.128686 0.502062 0.0991698 0.536002 0.077888C0.559961 0.0531826 0.588869 0.0338051 0.620823 0.0210236C0.652776 0.00824219 0.687057 0.00233963 0.721445 0.00370623H4.43031C4.47167 -0.00298099 4.51399 -0.000596447 4.55434 0.0106785C4.59469 0.0219534 4.63211 0.0418562 4.66401 0.0690143C4.69592 0.0961724 4.72155 0.129927 4.73912 0.167961C4.7567 0.205995 4.76579 0.2474 4.76579 0.289296C4.76579 0.331192 4.7567 0.372597 4.73912 0.410631C4.72155 0.448665 4.69592 0.48242 4.66401 0.509578C4.63211 0.536736 4.59469 0.556639 4.55434 0.567914C4.51399 0.579189 4.47167 0.581573 4.43031 0.574886H0.951415L0.669538 2.95597C1.07913 2.71511 1.54516 2.58694 2.02032 2.58445C2.49547 2.58196 2.96283 2.70526 3.37492 2.94182C3.78701 3.17838 4.12918 3.51977 4.36665 3.93134C4.60413 4.3429 4.72846 4.80996 4.72704 5.28513C4.73225 5.64116 4.666 5.99463 4.53222 6.32462C4.39844 6.65461 4.19984 6.95444 3.94816 7.20634C3.43571 7.71122 2.74635 7.996 2.02697 8.00002C1.66334 7.99797 1.30386 7.92271 0.969955 7.77869C0.636053 7.63468 0.334582 7.42487 0.0835309 7.16181Z" fill="#F8F8F8"/>
</svg>
