<svg width="20" height="9" viewBox="0 0 20 9" fill="none" xmlns="http://www.w3.org/2000/svg">
<path d="M0.234427 0.322346L9.84615 0.117219L14.7253 0.0366323C16.359 2.23518e-06 18 0.0366301 19.6337 0H19.956V0.329668L20 8.52748V8.89378H19.6044L9.90476 8.84982C6.67399 8.84982 3.4359 8.76924 0.205127 8.73261H0V8.5348C0 7.14286 0.0586005 5.76557 0.0952305 4.39561L0.234427 0.322346ZM0.234427 0.322346L0.33699 4.46887C0.37362 5.83151 0.41758 7.1795 0.432232 8.52016L0.234427 8.32235C3.4652 8.32235 6.7033 8.20513 9.93407 8.20513L19.6337 8.15386L19.2674 8.52016L19.304 0.322346L19.6337 0.652015C18.0366 0.652015 16.4396 0.652016 14.8352 0.60806L10.0147 0.527474L0.234427 0.322346Z" fill="#EBEBEB"/>
</svg>
