<svg width="12" height="11" viewBox="0 0 12 11" fill="none" xmlns="http://www.w3.org/2000/svg">
<path d="M10.4239 0.0268628C10.4239 -0.0375485 10.2951 0.0268641 10.3309 0.0841186C11.5404 2.43155 12.3634 5.43741 10.5957 7.72759C9.84431 8.67403 8.84185 9.39002 7.70285 9.79373C6.56384 10.1974 5.33424 10.2726 4.15455 10.0106C2.68518 9.71568 1.31259 9.0589 0.161048 8.09974C0.0680097 8.02818 -0.0608185 8.157 0.03222 8.23573C2.07907 9.96767 4.92748 11.034 7.60413 10.2539C8.79168 9.93509 9.85121 9.256 10.6369 8.31013C11.4225 7.36425 11.8957 6.19811 11.9913 4.97222C12.0986 3.18302 11.1968 1.57273 10.4239 0.0268628Z" fill="#263238"/>
</svg>
