<svg width="20" height="9" viewBox="0 0 20 9" fill="none" xmlns="http://www.w3.org/2000/svg">
<path d="M19.7946 8.62068L10.1687 8.81878L5.28247 8.90682C3.64637 8.90682 2.01027 8.90682 0.366838 8.90682H0.0440187V8.584L0 0.374176V0H0.366838L10.0807 0.0440243C13.3236 0.0440243 16.5591 0.124726 19.7946 0.161409H20V0.359505C20 1.74615 19.934 3.13279 19.9046 4.50476L19.7946 8.62068ZM19.7946 8.62068L19.6918 4.46808C19.6918 3.10345 19.6111 1.75349 19.5965 0.410862L19.7946 0.638299C16.5591 0.674983 13.3236 0.75569 10.0807 0.75569L0.366838 0.799709L0.733675 0.44021L0.71901 8.62068L0.388847 8.29053C1.9956 8.29053 3.58768 8.29053 5.19443 8.29053L10.022 8.37857L19.7946 8.62068Z" fill="#EBEBEB"/>
</svg>
