<svg width="6" height="8" viewBox="0 0 6 8" fill="none" xmlns="http://www.w3.org/2000/svg">
<path d="M3.95892 0.437797L2.47708 2.83695C2.97574 2.83003 3.46579 2.96726 3.88835 3.23211C4.3184 3.50859 4.65699 3.90617 4.86146 4.37476C5.06593 4.84336 5.12713 5.36198 5.03733 5.86529C4.94753 6.3686 4.71077 6.83408 4.35687 7.20305C4.00297 7.57203 3.54777 7.82799 3.04864 7.93869C2.7192 8.01286 2.37819 8.01984 2.04599 7.95922C1.71379 7.8986 1.39722 7.77162 1.11521 7.58588C1.08502 7.56784 1.05878 7.54389 1.03807 7.51546C1.01737 7.48703 1.00261 7.45472 0.994705 7.42045C0.986797 7.38618 0.9859 7.35067 0.992056 7.31604C0.998212 7.28142 1.0113 7.24839 1.03054 7.21894C1.04925 7.18852 1.07386 7.16214 1.10291 7.14136C1.13197 7.12057 1.16487 7.1058 1.19971 7.09791C1.23455 7.09002 1.27062 7.08918 1.30579 7.09542C1.34096 7.10167 1.37453 7.11488 1.40452 7.13427C1.68709 7.31609 2.01021 7.42526 2.34514 7.4521C2.68007 7.47893 3.01644 7.42259 3.32435 7.28808C3.63225 7.15357 3.90217 6.94507 4.11007 6.68111C4.31796 6.41714 4.4574 6.10588 4.51601 5.77503C4.57462 5.44417 4.55057 5.10397 4.446 4.78465C4.34143 4.46533 4.15957 4.1768 3.9166 3.9447C3.67363 3.71261 3.37708 3.54415 3.05332 3.4543C2.72955 3.36445 2.38858 3.356 2.06076 3.42969C2.01967 3.4375 1.97735 3.43583 1.937 3.42482C1.89665 3.41382 1.85934 3.39376 1.82791 3.36618C1.76743 3.3258 1.72486 3.26364 1.70908 3.19265C1.69331 3.12166 1.70555 3.04733 1.74324 2.98514L3.1545 0.670657L0.331967 1.30572C0.260881 1.32037 0.186871 1.30635 0.126078 1.2667C0.0652844 1.22706 0.0226149 1.16499 0.00735939 1.09403C-0.000959896 1.05926 -0.00224002 1.02318 0.0035909 0.987911C0.00942181 0.952638 0.0222524 0.918882 0.0413189 0.888638C0.0603855 0.858395 0.0853098 0.832274 0.114622 0.811804C0.143933 0.791334 0.17704 0.776932 0.211999 0.769446L3.68373 0.00735939C3.7185 -0.000959896 3.75458 -0.00224002 3.78985 0.0035909C3.82512 0.00942181 3.85888 0.0222416 3.88912 0.0413081C3.91937 0.0603747 3.94549 0.0852991 3.96596 0.114611C3.98643 0.143922 4.00083 0.177029 4.00832 0.211989C4.01913 0.251243 4.01913 0.292701 4.00832 0.331956C3.997 0.369418 3.98036 0.405058 3.95892 0.437797Z" fill="#F8F8F8"/>
</svg>
