<svg width="9" height="16" viewBox="0 0 9 16" fill="none" xmlns="http://www.w3.org/2000/svg">
<path d="M8.54895 0C7.63557 3.31627 3.63075 4.55285 0.820347 5.86671C0.77868 5.88413 0.741827 5.91132 0.712903 5.94601C0.683978 5.98069 0.663835 6.02183 0.654185 6.06595C0.644534 6.11007 0.645663 6.15587 0.657465 6.19946C0.669267 6.24305 0.691393 6.28315 0.721983 6.31638C1.57213 9.16191 1.94451 13.4267 0.0193832 15.8788C0.00633937 15.8927 -0.00061594 15.9113 4.28778e-05 15.9304C0.000701695 15.9495 0.0089241 15.9676 0.0228997 15.9806C0.0368753 15.9937 0.0554577 16.0006 0.0745633 16C0.093669 15.9993 0.111736 15.9911 0.12478 15.9771C2.57685 13.6304 2.55577 9.41484 1.42458 6.35853C4.31929 5.0517 8.27494 3.63947 8.59813 0.0351321L8.54895 0Z" fill="#263238"/>
</svg>
