<svg width="15" height="15" viewBox="0 0 15 15" fill="none" xmlns="http://www.w3.org/2000/svg">
<path d="M15 7.47821C15.0043 8.96157 14.5686 10.4129 13.7481 11.6486C12.9276 12.8844 11.7591 13.8491 10.3903 14.4207C9.0215 14.9924 7.51393 15.1453 6.05824 14.8601C4.60255 14.575 3.2641 13.8646 2.21216 12.8187C1.16022 11.7729 0.442024 10.4386 0.148401 8.9846C-0.145221 7.53059 -0.001077 6.02216 0.562587 4.65007C1.12625 3.27798 2.08411 2.10383 3.31508 1.27613C4.54604 0.448433 5.9948 0.00435438 7.47815 3.18454e-05C8.46307 -0.00283823 9.43891 0.188319 10.3499 0.56258C11.261 0.936841 12.0894 1.48688 12.7879 2.18129C13.4863 2.87571 14.0412 3.70088 14.4207 4.60973C14.8003 5.51858 14.9971 6.4933 15 7.47821Z" fill="#A6A6A6"/>
</svg>
