<svg width="20" height="9" viewBox="0 0 20 9" fill="none" xmlns="http://www.w3.org/2000/svg">
<path d="M19.7946 8.65004L10.1687 8.81879L5.28245 8.90683C3.64636 8.90683 2.00294 8.90683 0.366838 8.90683H0.0440188V8.58401L0 0.374176V0H0.366838L10.0807 0.0440216C13.3236 0.0440216 16.5591 0.124726 19.7946 0.16141H20V0.359503C20 1.74615 19.934 3.1328 19.9046 4.50477L19.7946 8.65004ZM19.7946 8.65004L19.6919 4.49744C19.6919 3.1328 19.6112 1.78284 19.5965 0.440207L19.7946 0.638298C16.5591 0.638298 13.3236 0.755686 10.0807 0.755686L0.366838 0.799707L0.733676 0.440207L0.696979 8.65004L0.366838 8.31989C1.96625 8.31989 3.56566 8.31989 5.17241 8.35657L10 8.44461L19.7946 8.65004Z" fill="#EBEBEB"/>
</svg>
