<svg width="15" height="15" viewBox="0 0 15 15" fill="none" xmlns="http://www.w3.org/2000/svg">
<path d="M15 7.4782C15.0043 8.96155 14.5686 10.4129 13.7481 11.6486C12.9276 12.8844 11.7591 13.8491 10.3903 14.4207C9.0215 14.9924 7.51393 15.1453 6.05824 14.8601C4.60255 14.575 3.2641 13.8645 2.21216 12.8187C1.16022 11.7729 0.442024 10.4386 0.148401 8.98458C-0.145221 7.53057 -0.001077 6.02214 0.562587 4.65005C1.12625 3.27796 2.08411 2.10384 3.31508 1.27614C4.54604 0.448438 5.9948 0.00433676 7.47815 1.42275e-05C9.4667 -0.00385447 11.3756 0.78139 12.7858 2.18341C14.196 3.58542 14.9923 5.48967 15 7.4782Z" fill="#B6FF9C"/>
</svg>
