<svg width="6" height="6" viewBox="0 0 6 6" fill="none" xmlns="http://www.w3.org/2000/svg">
<path d="M5.97551 3.38235C5.90198 3.95457 5.66502 4.49345 5.29302 4.93442C4.92101 5.37538 4.42976 5.69974 3.8781 5.86861C3.32645 6.03748 2.73778 6.04369 2.18268 5.88652C1.62757 5.72934 1.12957 5.41545 0.74833 4.98244C0.367091 4.54942 0.118812 4.01568 0.0332096 3.44514C-0.0523923 2.8746 0.0283271 2.29147 0.265704 1.76564C0.503081 1.23981 0.887049 0.793585 1.37158 0.480427C1.85612 0.167268 2.42066 0.000462825 2.99758 0C3.83984 0.0567111 4.62552 0.444105 5.18336 1.0777C5.74119 1.71128 6.02593 2.53969 5.97551 3.38235Z" fill="#DBDBDB"/>
</svg>
