<svg width="20" height="9" viewBox="0 0 20 9" fill="none" xmlns="http://www.w3.org/2000/svg">
<path d="M0.227188 0.322464L9.84243 0.117262L14.7233 0.0366457C16.3576 2.23599e-06 17.9993 0.0366434 19.6336 0H19.956V0.329789L20 8.53059V8.89703H19.6336L9.90839 8.84573C6.66911 8.84573 3.43715 8.76511 0.205202 8.72847H0V8.50861C0 7.11616 0.0659618 5.73837 0.0952765 4.3679L0.227188 0.322464ZM0.227188 0.322464L0.329789 4.4705C0.329789 5.83364 0.410408 7.18212 0.425065 8.52327L0.227188 8.32539C3.45914 8.28875 6.69109 8.20813 9.93037 8.20813L19.6336 8.15683L19.2671 8.52327V0.322464L19.5969 0.652253C17.9993 0.652253 16.4016 0.652255 14.7966 0.608282L9.97434 0.527666L0.227188 0.322464Z" fill="#EBEBEB"/>
</svg>
