<svg width="5" height="8" viewBox="0 0 5 8" fill="none" xmlns="http://www.w3.org/2000/svg">
<path d="M1.16843 7.61254L4.14532 0.564778H0.275381C0.202944 0.562895 0.133977 0.533277 0.0827394 0.482038C0.0315013 0.4308 0.00188245 0.361834 1.8389e-08 0.289396C-2.61949e-05 0.217637 0.0279736 0.148708 0.0780153 0.0972767C0.128057 0.0458449 0.196199 0.0159771 0.267932 0.0140377H4.50999C4.56551 -0.00467922 4.62564 -0.00467922 4.68117 0.0140377C4.75282 0.049561 4.80857 0.110635 4.83745 0.185217C4.84089 0.217375 4.84089 0.249812 4.83745 0.28197C4.83759 0.334906 4.82206 0.386687 4.79279 0.4308L1.70428 7.82095C1.68291 7.87071 1.64772 7.91329 1.60287 7.94364C1.55801 7.97398 1.50538 7.99079 1.45124 7.9921C1.41478 8.00265 1.37608 8.00265 1.33961 7.9921C1.26832 7.96228 1.21099 7.90652 1.17922 7.83607C1.14745 7.76563 1.1436 7.68572 1.16843 7.61254Z" fill="#F8F8F8"/>
</svg>
