<svg width="20" height="9" viewBox="0 0 20 9" fill="none" xmlns="http://www.w3.org/2000/svg">
<path d="M19.7578 8.57982L10.1211 8.78532L5.23303 8.86607C3.60367 8.90277 1.95963 8.86607 0.322932 8.91011H0V8.57982V0.366973V0H0.366973L10.0844 0.0440349C13.3211 0.0440349 16.5651 0.132118 19.8018 0.168815H20V0.366973C20 1.76147 19.9413 3.14862 19.9046 4.51376L19.7578 8.57982ZM19.7578 8.57982L19.655 4.43304C19.655 3.06056 19.5743 1.71009 19.5596 0.366973L19.7578 0.56513C16.5211 0.601827 13.2771 0.682571 10.0404 0.68991L0.322932 0.733945L0.689905 0.366973L0.631193 8.57982L0.308256 8.24954C1.90826 8.24954 3.50826 8.24954 5.10826 8.29357L9.93762 8.37432L19.7578 8.57982Z" fill="#EBEBEB"/>
</svg>
