<svg width="14" height="20" viewBox="0 0 14 20" fill="none" xmlns="http://www.w3.org/2000/svg">
<path d="M5.43023 6.81853C5.43023 6.94294 5.39334 7.06456 5.32422 7.16801C5.25509 7.27146 5.15685 7.35209 5.0419 7.39971C4.92695 7.44732 4.80046 7.45977 4.67844 7.4355C4.55641 7.41123 4.44432 7.35131 4.35635 7.26334C4.26837 7.17536 4.20846 7.06327 4.18418 6.94125C4.15991 6.81922 4.17236 6.69273 4.21998 6.57778C4.26759 6.46284 4.34822 6.36459 4.45167 6.29547C4.55512 6.22634 4.67675 6.18945 4.80117 6.18945C4.96801 6.18945 5.12801 6.25573 5.24598 6.3737C5.36395 6.49168 5.43023 6.65169 5.43023 6.81853ZM12.8706 6.26899C12.7851 6.31459 12.7114 6.37957 12.6554 6.45871C12.5995 6.53786 12.5628 6.62898 12.5483 6.72482C12.5338 6.82066 12.542 6.91856 12.572 7.0107C12.6021 7.10284 12.6533 7.18667 12.7216 7.2555C12.7898 7.32434 12.8732 7.37627 12.9651 7.40714C13.057 7.43802 13.1548 7.44699 13.2508 7.43334C13.3467 7.41968 13.4382 7.38378 13.5178 7.32851C13.5974 7.27324 13.663 7.20011 13.7093 7.11498L12.8706 6.26899ZM0.62907 0C0.504652 0 0.383023 0.0368944 0.279573 0.106017C0.176124 0.17514 0.0955015 0.273386 0.0478889 0.388333C0.000276194 0.50328 -0.0121863 0.62977 0.0120864 0.751797C0.0363591 0.873824 0.0962705 0.98591 0.184247 1.07389C0.272224 1.16186 0.384321 1.22178 0.506348 1.24605C0.628375 1.27032 0.754854 1.25787 0.869801 1.21026C0.984748 1.16264 1.08299 1.08201 1.15212 0.978561C1.22124 0.875111 1.25813 0.753483 1.25813 0.629065C1.25813 0.546454 1.24186 0.464655 1.21025 0.388333C1.17864 0.312011 1.13231 0.242668 1.07389 0.184253C1.01548 0.125839 0.946123 0.0794974 0.869801 0.0478838C0.793479 0.0162701 0.71168 0 0.62907 0ZM4.80117 18.7419C4.67675 18.7419 4.55512 18.7788 4.45167 18.8479C4.34822 18.917 4.26759 19.0153 4.21998 19.1302C4.17236 19.2452 4.15991 19.3717 4.18418 19.4937C4.20846 19.6157 4.26837 19.7278 4.35635 19.8158C4.44432 19.9038 4.55641 19.9637 4.67844 19.9879C4.80046 20.0122 4.92695 19.9998 5.0419 19.9521C5.15685 19.9045 5.25509 19.8239 5.32422 19.7205C5.39334 19.617 5.43023 19.4954 5.43023 19.371C5.43023 19.2041 5.36395 19.0441 5.24598 18.9261C5.12801 18.8082 4.96801 18.7419 4.80117 18.7419ZM8.98049 12.5524C8.85607 12.5524 8.73445 12.5893 8.631 12.6585C8.52755 12.7276 8.44691 12.8258 8.3993 12.9408C8.35169 13.0557 8.33924 13.1822 8.36351 13.3042C8.38778 13.4263 8.44769 13.5384 8.53567 13.6263C8.62365 13.7143 8.73573 13.7742 8.85776 13.7985C8.97979 13.8228 9.10628 13.8103 9.22122 13.7627C9.33617 13.7151 9.43442 13.6345 9.50354 13.531C9.57266 13.4276 9.60956 13.3059 9.60956 13.1815C9.60956 13.0989 9.59329 13.0171 9.56167 12.9408C9.53006 12.8645 9.48372 12.7951 9.4253 12.7367C9.36689 12.6783 9.29755 12.6319 9.22122 12.6003C9.1449 12.5687 9.0631 12.5524 8.98049 12.5524Z" fill="white"/>
</svg>
