<svg width="6" height="8" viewBox="0 0 6 8" fill="none" xmlns="http://www.w3.org/2000/svg">
<path d="M1.08544 7.56389C1.05552 7.54457 1.02975 7.51949 1.00962 7.49012C0.989483 7.46075 0.975386 7.42767 0.968149 7.3928C0.960913 7.35794 0.960696 7.32198 0.96748 7.28703C0.974265 7.25207 0.987923 7.21881 1.00768 7.18918C1.04813 7.12858 1.11041 7.08593 1.18154 7.07012C1.25266 7.05431 1.32716 7.06657 1.38947 7.10433C1.84287 7.39252 2.39207 7.48914 2.91661 7.373C3.44287 7.25303 3.90057 6.93037 4.19045 6.47505C4.48032 6.01973 4.57895 5.46847 4.46494 4.94089C4.41148 4.67853 4.30593 4.42958 4.1545 4.20877C4.00307 3.98796 3.80885 3.79979 3.58338 3.65541C3.3579 3.51102 3.10573 3.41336 2.84183 3.36821C2.57792 3.32305 2.30763 3.33132 2.04698 3.39253C1.78448 3.44903 1.53598 3.55761 1.31617 3.71184C1.09637 3.86607 0.909725 4.06281 0.767297 4.29044C0.748544 4.32092 0.723887 4.34735 0.694779 4.36818C0.665671 4.389 0.632701 4.4038 0.597794 4.41171C0.562887 4.41961 0.526749 4.42045 0.49151 4.4142C0.45627 4.40794 0.422637 4.39471 0.392583 4.37528C0.359931 4.35751 0.331105 4.33349 0.307745 4.30458C0.302715 4.27652 0.302715 4.2478 0.307745 4.21974C0.31137 4.20106 0.31137 4.18186 0.307745 4.16318L0.00371533 1.08769C-0.00292673 1.04872 -0.000638464 1.00876 0.0103824 0.970801C0.0214032 0.932841 0.0408674 0.897871 0.0673435 0.86852C0.105461 0.817743 0.160745 0.782563 0.222886 0.769539L3.6943 0.00596824C3.72912 -0.00145941 3.76506 -0.00196062 3.80007 0.00450106C3.83508 0.0109627 3.86848 0.0242622 3.89835 0.0436295C3.92822 0.0629968 3.95398 0.0880525 3.97417 0.117377C3.99435 0.146701 4.00857 0.179717 4.016 0.214534C4.02343 0.249352 4.02393 0.285292 4.01747 0.320301C4.01101 0.35531 3.9977 0.388709 3.97833 0.418581C3.95896 0.448452 3.93391 0.474213 3.90458 0.494399C3.87526 0.514585 3.84224 0.528797 3.80742 0.536225L0.569335 1.24323L0.788506 3.51274C1.12547 3.20578 1.53774 2.99354 1.98335 2.89763C2.31244 2.82045 2.65375 2.81074 2.98669 2.86906C3.31963 2.92739 3.6373 3.05255 3.92055 3.237C4.20962 3.41624 4.45865 3.65314 4.65207 3.93292C4.84548 4.21271 4.97913 4.52936 5.04469 4.86311C5.12105 5.19303 5.131 5.53485 5.07395 5.86865C5.0169 6.20245 4.894 6.52156 4.71239 6.80739C4.33527 7.37884 3.75322 7.78376 3.08628 7.93861C2.74474 8.01425 2.39143 8.02004 2.04758 7.95565C1.70374 7.89126 1.37646 7.758 1.08544 7.56389Z" fill="#F8F8F8"/>
</svg>
