<svg width="6" height="8" viewBox="0 0 6 8" fill="none" xmlns="http://www.w3.org/2000/svg">
<path d="M0.245191 2.28835C0.395089 1.73492 0.690308 1.23168 1.10024 0.830796C1.51017 0.429917 2.01989 0.145998 2.57652 0.00849325C2.64769 -0.00946509 2.72306 0.00130142 2.78636 0.0384556C2.84966 0.0756097 2.89581 0.136172 2.91482 0.207064C2.92907 0.279924 2.91594 0.355478 2.87795 0.419258C2.83995 0.483037 2.77976 0.53056 2.7089 0.552719C2.24428 0.667079 1.81893 0.90421 1.47736 1.23931C1.1358 1.5744 0.890565 1.99514 0.767344 2.45749C0.605155 2.9985 0.533105 3.56252 0.554073 4.12693C0.84926 3.5985 1.31935 3.18943 1.8835 2.97008C2.44765 2.75074 3.07061 2.73482 3.64523 2.92507C4.21985 3.11532 4.71022 3.49984 5.032 4.01251C5.35379 4.52519 5.48689 5.13396 5.40841 5.73415C5.32992 6.33433 5.04476 6.88841 4.60196 7.3011C4.15916 7.71379 3.58639 7.95928 2.98218 7.99537C2.37796 8.03147 1.78006 7.8559 1.29128 7.49886C0.802502 7.14182 0.453406 6.62564 0.304027 6.03907C0.24788 5.87328 0.203636 5.7037 0.171643 5.53162C-0.0799148 4.46185 -0.0545988 3.34561 0.245191 2.28835ZM0.833541 5.86991C0.845938 5.91921 0.865767 5.96633 0.892366 6.00964C0.899217 6.03618 0.899217 6.06401 0.892366 6.09054C1.07148 6.60213 1.44246 7.02405 1.92693 7.26715C2.4114 7.51026 2.97141 7.5555 3.48862 7.39332C4.00583 7.23114 4.43971 6.87424 4.69863 6.39803C4.95754 5.92183 5.02118 5.36362 4.87611 4.84136C4.73104 4.3191 4.38862 3.87368 3.9212 3.59924C3.45377 3.32479 2.89795 3.24282 2.37119 3.37063C1.84444 3.49843 1.388 3.82602 1.09832 4.28416C0.808644 4.7423 0.708425 5.29511 0.81883 5.82579L0.833541 5.86991Z" fill="#F8F8F8"/>
</svg>
