<svg width="4" height="8" viewBox="0 0 4 8" fill="none" xmlns="http://www.w3.org/2000/svg">
<path d="M1.47862 0.854727L0.493552 1.77107C0.457987 1.8078 0.413122 1.8342 0.363738 1.84744C0.314551 1.85777 0.263546 1.85548 0.215479 1.84079C0.167412 1.82611 0.123845 1.7995 0.0888343 1.76344C0.0608322 1.73769 0.038478 1.70641 0.0231873 1.67157C0.00789663 1.63674 0 1.59912 0 1.56108C0 1.52304 0.00789663 1.4854 0.0231873 1.45057C0.038478 1.41574 0.0608322 1.38447 0.0888343 1.35872L1.4328 0.0758307C1.4874 0.026994 1.55808 0 1.63134 0C1.70459 0 1.77529 0.026994 1.82989 0.0758307C1.87943 0.130672 1.90903 0.200632 1.91389 0.27438L3.54804 7.65859C3.56398 7.73148 3.55045 7.80771 3.51039 7.87066C3.47033 7.9336 3.407 7.97816 3.33422 7.99459C3.26054 8.00879 3.18421 7.99466 3.1205 7.95502C3.05679 7.91537 3.01039 7.85314 2.99058 7.78076L1.47862 0.854727Z" fill="#F8F8F8"/>
</svg>
