<svg width="11" height="36" viewBox="0 0 11 36" fill="none" xmlns="http://www.w3.org/2000/svg">
<path d="M10.3007 35.3971C7.48413 35.9674 4.05499 35.8336 1.94963 33.5945C-0.000830162 31.5173 0.301947 28.3346 1.36519 25.9053C2.52702 23.2578 4.44931 21.0327 5.76604 18.4696C7.05967 15.9294 7.87366 13.1724 8.16714 10.3369C8.52625 6.92886 7.73058 3.38706 8.67412 0.0424119C8.67412 -0.00687759 8.61779 -0.0209603 8.61075 0.0424119C7.67425 3.09132 8.24459 6.30922 7.96998 9.43558C7.68353 12.5732 6.7637 15.6202 5.2661 18.3922C3.85783 21.0257 1.74542 23.3211 0.675136 26.1377C-0.275447 28.5881 -0.388109 31.6159 1.42856 33.7071C2.40084 34.7806 3.68713 35.5199 5.10415 35.8195C6.84453 36.1241 8.63059 36.0424 10.3359 35.5801C10.3993 35.4886 10.3711 35.383 10.3007 35.3971Z" fill="#263238"/>
</svg>
