<svg width="11" height="11" viewBox="0 0 11 11" fill="none" xmlns="http://www.w3.org/2000/svg">
<path d="M10.9993 5.57815C10.9839 6.66608 10.6461 7.72497 10.0287 8.62087C9.41126 9.51677 8.542 10.2094 7.53086 10.6112C6.51972 11.013 5.41214 11.1058 4.34823 10.878C3.28431 10.6501 2.31188 10.1118 1.55395 9.33121C0.796026 8.55059 0.286668 7.5627 0.0903096 6.49253C-0.106049 5.42236 0.0194207 4.31799 0.450843 3.31914C0.882265 2.3203 1.60026 1.47185 2.51398 0.88114C3.4277 0.290436 4.4961 -0.0159864 5.58401 0.000642645C6.30597 0.0107514 7.01886 0.163101 7.68189 0.448972C8.34492 0.734843 8.94508 1.14863 9.44805 1.66666C9.95101 2.18468 10.3469 2.79679 10.6131 3.46797C10.8793 4.13914 11.0105 4.85621 10.9993 5.57815Z" fill="#DBDBDB"/>
</svg>
