<svg width="13" height="19" viewBox="0 0 13 19" fill="none" xmlns="http://www.w3.org/2000/svg">
<path d="M8.361 0.0130315C8.43038 0.0257026 8.49657 0.0519827 8.55574 0.0903545C8.61491 0.128726 8.6659 0.178432 8.70577 0.236605C8.74564 0.294779 8.77361 0.360264 8.78805 0.429296C8.80249 0.498328 8.80312 0.569538 8.78991 0.638815L8.62819 1.51069C10.0316 1.88834 11.2901 2.67676 12.2423 3.77477C12.3221 3.84337 12.3837 3.9306 12.4217 4.02872C12.4597 4.12684 12.473 4.23282 12.4602 4.33727C12.4455 4.41374 12.4152 4.48637 12.3712 4.55067C12.3272 4.61496 12.2705 4.66955 12.2046 4.71107C12.1387 4.75259 12.065 4.78015 11.988 4.79205C11.9111 4.80394 11.8325 4.79992 11.7571 4.78024C11.6836 4.7684 11.6133 4.74173 11.5504 4.70184C11.4876 4.66195 11.4335 4.60967 11.3915 4.5482C10.6046 3.58915 9.55325 2.88252 8.36804 2.51617L7.22194 8.65448C10.4282 9.97636 11.5954 11.467 11.1946 13.6326C10.7657 15.96 8.50866 17.2397 5.7524 16.8178L5.42896 18.5264C5.42061 18.5993 5.39734 18.6698 5.36057 18.7333C5.32381 18.7968 5.27434 18.8521 5.21527 18.8957C5.1562 18.9393 5.08877 18.9702 5.01722 18.9866C4.94566 19.0029 4.8715 19.0044 4.79936 18.9908C4.72721 18.9773 4.65863 18.949 4.5979 18.9078C4.53717 18.8665 4.48558 18.8132 4.44635 18.7512C4.40713 18.6891 4.38111 18.6197 4.36992 18.5471C4.35873 18.4746 4.3626 18.4005 4.3813 18.3295L4.70474 16.5998C2.89468 16.1173 1.29666 15.0462 0.162537 13.5553C0.0996043 13.4884 0.0529137 13.408 0.0260874 13.3202C-0.000738826 13.2324 -0.00698036 13.1396 0.00784831 13.049C0.0414679 12.9062 0.127047 12.781 0.247928 12.6978C0.36881 12.6146 0.516331 12.5794 0.661752 12.599C0.808348 12.6279 0.938797 12.7107 1.02738 12.8311C1.96892 14.1866 3.34601 15.1791 4.92974 15.6436L6.0899 9.39276C2.93989 8.05681 1.80082 6.58025 2.21567 4.40758C2.63052 2.23492 4.86646 0.891941 7.55241 1.29272L7.71412 0.463033C7.72402 0.38959 7.74908 0.319009 7.78771 0.255772C7.82635 0.192535 7.87772 0.138022 7.93855 0.0957029C7.99939 0.0533836 8.06836 0.0241797 8.14109 0.0099469C8.21382 -0.00428589 8.2887 -0.00323326 8.361 0.0130315ZM6.32896 8.25369L7.44694 2.27007C5.33756 1.91851 3.67114 2.92398 3.37583 4.50602C3.08051 6.08806 3.60786 7.04431 6.32896 8.25369ZM7.03209 9.77245L5.90709 15.8193C8.10788 16.185 9.76726 15.1795 10.0766 13.5131C10.3719 12.0014 9.77429 10.9396 7.04616 9.77245H7.03209Z" fill="#DBDBDB"/>
</svg>
