<svg width="5" height="8" viewBox="0 0 5 8" fill="none" xmlns="http://www.w3.org/2000/svg">
<path d="M4.60568 0.511589L2.5445 2.63207C3.15747 2.75141 3.70942 3.08133 4.10479 3.56472C4.50016 4.0481 4.71407 4.65452 4.70948 5.27898C4.7115 5.63572 4.64238 5.98929 4.50617 6.31901C4.36995 6.64873 4.16937 6.94799 3.91615 7.19928C3.4074 7.71004 2.71675 7.99802 1.99585 8.00002C1.64148 8.00089 1.29047 7.9312 0.963319 7.795C0.636167 7.65879 0.339416 7.45881 0.0903709 7.2067C0.0619693 7.18166 0.0392255 7.15085 0.0236449 7.11633C0.00806424 7.08182 0 7.04437 0 7.0065C0 6.96863 0.00806424 6.93121 0.0236449 6.8967C0.0392255 6.86218 0.0619693 6.83137 0.0903709 6.80632C0.116568 6.77987 0.14775 6.75886 0.182111 6.74453C0.216471 6.7302 0.253331 6.72283 0.29056 6.72283C0.327789 6.72283 0.364649 6.7302 0.39901 6.74453C0.43337 6.75886 0.464541 6.77987 0.490738 6.80632C0.887029 7.19522 1.4184 7.41573 1.9736 7.4217C2.52827 7.40633 3.05716 7.1842 3.45646 6.7989C3.6558 6.59946 3.81351 6.36239 3.92043 6.10146C4.02735 5.84053 4.08134 5.56096 4.07927 5.27898C4.07535 4.71326 3.84787 4.17204 3.44646 3.7734C3.04504 3.37476 2.50226 3.15106 1.93654 3.15108C1.89206 3.14846 1.84862 3.13655 1.80903 3.11612C1.76945 3.09569 1.73459 3.06718 1.70669 3.03245C1.6791 3.00614 1.65714 2.9745 1.64213 2.93945C1.62712 2.9044 1.61939 2.86668 1.61939 2.82856C1.61939 2.79043 1.62712 2.75269 1.64213 2.71764C1.65714 2.6826 1.6791 2.65096 1.70669 2.62465L3.68631 0.570893H0.624201C0.556393 0.559929 0.494706 0.525178 0.45018 0.472874C0.405654 0.420571 0.381203 0.354125 0.381203 0.285435C0.381203 0.216746 0.405654 0.1503 0.45018 0.097996C0.494706 0.0456926 0.556393 0.0109638 0.624201 0H4.33135C4.40608 0 4.47774 0.0296823 4.53058 0.0825194C4.58342 0.135357 4.6131 0.207001 4.6131 0.281725C4.62569 0.322796 4.62569 0.366707 4.6131 0.407778C4.61661 0.442547 4.6141 0.477672 4.60568 0.511589Z" fill="#F8F8F8"/>
</svg>
