<svg width="6" height="8" viewBox="0 0 6 8" fill="none" xmlns="http://www.w3.org/2000/svg">
<path d="M2.06626 0.0641002C2.69297 -0.0774984 3.3499 0.0173325 3.91098 0.330398C4.47206 0.643464 4.89777 1.15271 5.1064 1.7604C5.1064 1.7604 5.1064 1.76041 5.1064 1.80447C5.16515 2.01743 5.22388 2.23038 5.27528 2.46537C5.52772 3.53514 5.50753 4.65117 5.21654 5.71111C5.0621 6.2625 4.76484 6.76336 4.35481 7.16307C3.94479 7.56279 3.43653 7.84719 2.88138 7.98754C2.84715 7.99861 2.81097 8.00237 2.7752 7.99858C2.73943 7.99479 2.70485 7.98353 2.6737 7.96553C2.64256 7.94754 2.61552 7.9232 2.59437 7.8941C2.57322 7.865 2.55842 7.83179 2.55092 7.79661C2.54094 7.76092 2.53816 7.72362 2.54276 7.68685C2.54736 7.65009 2.55924 7.61461 2.5777 7.58248C2.59616 7.55035 2.62082 7.52222 2.65026 7.49973C2.67971 7.47724 2.71333 7.46083 2.74918 7.45147C3.21344 7.3363 3.63857 7.09932 3.98066 6.76498C4.32274 6.43064 4.56941 6.01106 4.69518 5.54955C4.85679 5.00939 4.92629 4.44587 4.90079 3.88262C4.6892 4.26441 4.38538 4.58714 4.01705 4.82137C3.64872 5.05561 3.2276 5.19388 2.79212 5.22359C2.35663 5.25329 1.92066 5.17348 1.52394 4.99143C1.12721 4.80939 0.782377 4.5309 0.520909 4.18138C0.259442 3.83186 0.0896558 3.42244 0.0270377 2.99045C-0.0355804 2.55847 0.0109775 2.11769 0.162439 1.70831C0.3139 1.29894 0.565446 0.933994 0.894148 0.646794C1.22285 0.359593 1.61823 0.159271 2.04423 0.0641002H2.06626ZM4.6511 2.15695C4.5635 1.75865 4.35984 1.39523 4.06584 1.1126C3.77183 0.829966 3.40068 0.640791 2.99923 0.568964C2.59778 0.497137 2.18406 0.545884 1.81029 0.709038C1.43653 0.872191 1.11949 1.14244 0.899213 1.48566C0.678939 1.82887 0.565317 2.22966 0.572676 2.63742C0.580036 3.04517 0.708043 3.44161 0.940559 3.77665C1.17308 4.1117 1.49966 4.37032 1.87907 4.51988C2.25848 4.66944 2.67369 4.70322 3.07229 4.61695C3.3377 4.55951 3.58917 4.45024 3.81227 4.29541C4.03536 4.14058 4.22571 3.94325 4.37238 3.71471C4.51906 3.48617 4.61918 3.23092 4.66701 2.96361C4.71483 2.69629 4.70943 2.42217 4.6511 2.15695Z" fill="#F8F8F8"/>
</svg>
