<svg width="6" height="8" viewBox="0 0 6 8" fill="none" xmlns="http://www.w3.org/2000/svg">
<path d="M1.20078 7.59075L4.00235 3.65571C4.16473 3.42956 4.27782 3.17184 4.33431 2.89923C4.3908 2.62662 4.38942 2.34519 4.33028 2.07314C4.21285 1.56535 3.90012 1.12426 3.45981 0.845402C3.0195 0.56654 2.48706 0.472354 1.9778 0.583243C1.49303 0.686576 1.06379 0.96597 0.773051 1.3674L0.487908 1.78086C0.448204 1.83947 0.386845 1.87991 0.317326 1.89328C0.247808 1.90665 0.175823 1.89185 0.117213 1.85215C0.0586025 1.81245 0.0181731 1.75109 0.00480419 1.68157C-0.00856472 1.61205 0.00622851 1.54007 0.0459321 1.48146L0.3382 1.05374C0.70615 0.547506 1.24596 0.192694 1.85662 0.0557155C2.50468 -0.0827577 3.18121 0.039248 3.74008 0.395377C4.29895 0.751506 4.69531 1.31317 4.84354 1.95908C4.92028 2.30235 4.92441 2.65789 4.85566 3.00286C4.78691 3.34783 4.64681 3.67462 4.44434 3.96225L2.04196 7.33412L5.60631 6.54996C5.67619 6.53739 5.74822 6.55275 5.80688 6.59275C5.86554 6.63275 5.90615 6.69418 5.91997 6.76382C5.93486 6.83187 5.92223 6.90304 5.88484 6.9618C5.84744 7.02057 5.78831 7.06215 5.72037 7.07749L1.55721 7.98996H1.51444C1.47841 8.00049 1.44047 8.00275 1.40344 7.99658C1.36641 7.99041 1.33125 7.97596 1.30058 7.95431C1.24255 7.91624 1.2004 7.85831 1.18202 7.79138C1.16365 7.72445 1.17032 7.65312 1.20078 7.59075Z" fill="#F8F8F8"/>
</svg>
