<svg width="5" height="8" viewBox="0 0 5 8" fill="none" xmlns="http://www.w3.org/2000/svg">
<path d="M2.55826 7.64175L3.84764 0.571139L0.294813 1.377C0.230302 1.38593 0.164807 1.37025 0.111327 1.33309C0.0578465 1.29592 0.020303 1.23999 0.00617519 1.17642C-0.0079526 1.11284 0.00236036 1.04628 0.0350668 0.98996C0.0677732 0.933642 0.120469 0.891694 0.18269 0.872458L4.0859 0.0105335C4.13632 -0.00351116 4.18963 -0.00351116 4.24006 0.0105335C4.31203 0.0295 4.37444 0.074426 4.41525 0.136664C4.41525 0.171702 4.45029 0.185724 4.45729 0.220762C4.47112 0.268841 4.47112 0.319835 4.45729 0.367914L3.10484 7.7819C3.09491 7.83171 3.07128 7.87777 3.03662 7.9149C3.00197 7.95204 2.95764 7.97878 2.90863 7.99212C2.872 8.00264 2.83314 8.00264 2.79651 7.99212C2.75708 7.98639 2.71926 7.97251 2.68548 7.95137C2.6517 7.93024 2.62269 7.90231 2.60028 7.86936C2.57787 7.83641 2.56256 7.79916 2.55533 7.75998C2.54809 7.72079 2.54909 7.68053 2.55826 7.64175Z" fill="#F8F8F8"/>
</svg>
