<svg width="41" height="38" viewBox="0 0 41 38" fill="none" xmlns="http://www.w3.org/2000/svg">
<path d="M20.5348 6.65441C20.5348 6.77584 20.4988 6.89453 20.4314 6.99549C20.3639 7.09645 20.268 7.17514 20.1558 7.22161C20.0436 7.26807 19.9202 7.28023 19.8011 7.25654C19.682 7.23285 19.5726 7.17438 19.4868 7.08852C19.4009 7.00266 19.3424 6.89327 19.3188 6.77418C19.2951 6.65509 19.3072 6.53165 19.3537 6.41947C19.4002 6.30729 19.4788 6.2114 19.5798 6.14395C19.6808 6.07649 19.7995 6.04048 19.9209 6.04048C20.0837 6.04048 20.2399 6.10516 20.355 6.2203C20.4701 6.33543 20.5348 6.49159 20.5348 6.65441ZM28.0713 6.04048C27.9499 6.04048 27.8312 6.07649 27.7302 6.14395C27.6293 6.2114 27.5506 6.30729 27.5041 6.41947C27.4576 6.53165 27.4455 6.65509 27.4692 6.77418C27.4929 6.89327 27.5513 7.00266 27.6372 7.08852C27.723 7.17438 27.8324 7.23285 27.9515 7.25654C28.0706 7.28023 28.1941 7.26807 28.3062 7.22161C28.4184 7.17514 28.5143 7.09645 28.5818 6.99549C28.6492 6.89453 28.6852 6.77584 28.6852 6.65441C28.6852 6.57379 28.6694 6.49395 28.6385 6.41947C28.6076 6.34498 28.5624 6.27731 28.5054 6.2203C28.4484 6.16329 28.3807 6.11806 28.3062 6.08721C28.2318 6.05636 28.1519 6.04048 28.0713 6.04048ZM36.2217 6.04048C36.1003 6.04048 35.9816 6.07649 35.8806 6.14395C35.7797 6.2114 35.701 6.30729 35.6545 6.41947C35.6081 6.53165 35.5959 6.65509 35.6196 6.77418C35.6433 6.89327 35.7017 7.00266 35.7876 7.08852C35.8735 7.17438 35.9829 7.23285 36.1019 7.25654C36.221 7.28023 36.3445 7.26807 36.4567 7.22161C36.5688 7.17514 36.6647 7.09645 36.7322 6.99549C36.7996 6.89453 36.8356 6.77584 36.8356 6.65441C36.8356 6.57379 36.8198 6.49395 36.7889 6.41947C36.7581 6.34498 36.7128 6.27731 36.6558 6.2203C36.5988 6.16329 36.5311 6.11806 36.4567 6.08721C36.3822 6.05636 36.3023 6.04048 36.2217 6.04048ZM23.9785 0C23.857 0 23.7383 0.0360064 23.6374 0.103466C23.5364 0.170925 23.4577 0.266806 23.4113 0.378986C23.3648 0.491167 23.3526 0.614612 23.3763 0.733702C23.4 0.852793 23.4585 0.962181 23.5443 1.04804C23.6302 1.1339 23.7396 1.19237 23.8587 1.21606C23.9778 1.23975 24.1012 1.22759 24.2134 1.18113C24.3256 1.13466 24.4215 1.05597 24.4889 0.955008C24.5564 0.854049 24.5924 0.735347 24.5924 0.613924C24.5924 0.4511 24.5277 0.294952 24.4126 0.179818C24.2974 0.0646848 24.1413 0 23.9785 0ZM32.1289 0C32.0074 0 31.8887 0.0360064 31.7878 0.103466C31.6868 0.170925 31.6081 0.266806 31.5617 0.378986C31.5152 0.491167 31.503 0.614612 31.5267 0.733702C31.5504 0.852793 31.6089 0.962181 31.6948 1.04804C31.7806 1.1339 31.89 1.19237 32.0091 1.21606C32.1282 1.23975 32.2516 1.22759 32.3638 1.18113C32.476 1.13466 32.5719 1.05597 32.6393 0.955008C32.7068 0.854049 32.7428 0.735347 32.7428 0.613924C32.7429 0.454703 32.6811 0.301674 32.5705 0.18713C32.4599 0.0725856 32.3092 0.00549036 32.15 0H32.1289ZM11.7705 18.2908C11.649 18.2908 11.5304 18.3268 11.4294 18.3943C11.3284 18.4617 11.2497 18.5576 11.2033 18.6698C11.1568 18.782 11.1447 18.9054 11.1683 19.0245C11.192 19.1436 11.2505 19.253 11.3364 19.3388C11.4222 19.4247 11.5316 19.4832 11.6507 19.5069C11.7698 19.5305 11.8932 19.5184 12.0054 19.4719C12.1176 19.4255 12.2135 19.3468 12.2809 19.2458C12.3484 19.1448 12.3844 19.0261 12.3844 18.9047C12.3844 18.7419 12.3197 18.5858 12.2046 18.4706C12.0895 18.3555 11.9333 18.2908 11.7705 18.2908ZM19.9209 18.2908C19.7995 18.2908 19.6808 18.3268 19.5798 18.3943C19.4788 18.4617 19.4002 18.5576 19.3537 18.6698C19.3072 18.782 19.2951 18.9054 19.3188 19.0245C19.3424 19.1436 19.4009 19.253 19.4868 19.3388C19.5726 19.4247 19.682 19.4832 19.8011 19.5069C19.9202 19.5305 20.0436 19.5184 20.1558 19.4719C20.268 19.4255 20.3639 19.3468 20.4314 19.2458C20.4988 19.1448 20.5348 19.0261 20.5348 18.9047C20.5348 18.7419 20.4701 18.5858 20.355 18.4706C20.2399 18.3555 20.0837 18.2908 19.9209 18.2908ZM28.0713 18.2908C27.9499 18.2908 27.8312 18.3268 27.7302 18.3943C27.6293 18.4617 27.5506 18.5576 27.5041 18.6698C27.4576 18.782 27.4455 18.9054 27.4692 19.0245C27.4929 19.1436 27.5513 19.253 27.6372 19.3388C27.723 19.4247 27.8324 19.4832 27.9515 19.5069C28.0706 19.5305 28.1941 19.5184 28.3062 19.4719C28.4184 19.4255 28.5143 19.3468 28.5818 19.2458C28.6492 19.1448 28.6852 19.0261 28.6852 18.9047C28.6852 18.8241 28.6694 18.7443 28.6385 18.6698C28.6076 18.5953 28.5624 18.5276 28.5054 18.4706C28.4484 18.4136 28.3807 18.3684 28.3062 18.3375C28.2318 18.3067 28.1519 18.2908 28.0713 18.2908ZM36.2217 18.2908C36.1003 18.2908 35.9816 18.3268 35.8806 18.3943C35.7797 18.4617 35.701 18.5576 35.6545 18.6698C35.6081 18.782 35.5959 18.9054 35.6196 19.0245C35.6433 19.1436 35.7017 19.253 35.7876 19.3388C35.8735 19.4247 35.9829 19.4832 36.1019 19.5069C36.221 19.5305 36.3445 19.5184 36.4567 19.4719C36.5688 19.4255 36.6647 19.3468 36.7322 19.2458C36.7996 19.1448 36.8356 19.0261 36.8356 18.9047C36.8356 18.7419 36.771 18.5858 36.6558 18.4706C36.5407 18.3555 36.3845 18.2908 36.2217 18.2908ZM15.8492 12.2503C15.7278 12.2503 15.6091 12.2863 15.5081 12.3538C15.4072 12.4212 15.3285 12.5171 15.282 12.6293C15.2355 12.7415 15.2234 12.8649 15.2471 12.984C15.2708 13.1031 15.3292 13.2125 15.4151 13.2984C15.501 13.3842 15.6103 13.4427 15.7294 13.4664C15.8485 13.4901 15.972 13.4779 16.0841 13.4314C16.1963 13.385 16.2922 13.3063 16.3597 13.2053C16.4271 13.1044 16.4631 12.9857 16.4631 12.8642C16.4631 12.7014 16.3985 12.5453 16.2833 12.4301C16.1682 12.315 16.012 12.2503 15.8492 12.2503ZM23.9996 12.2503C23.8782 12.2503 23.7595 12.2863 23.6585 12.3538C23.5576 12.4212 23.4789 12.5171 23.4324 12.6293C23.386 12.7415 23.3738 12.8649 23.3975 12.984C23.4212 13.1031 23.4797 13.2125 23.5655 13.2984C23.6514 13.3842 23.7608 13.4427 23.8799 13.4664C23.9989 13.4901 24.1224 13.4779 24.2346 13.4314C24.3467 13.385 24.4426 13.3063 24.5101 13.2053C24.5775 13.1044 24.6136 12.9857 24.6136 12.8642C24.6136 12.7818 24.597 12.7002 24.5649 12.6243C24.5327 12.5484 24.4856 12.4798 24.4263 12.4225C24.367 12.3652 24.2968 12.3204 24.2199 12.2908C24.143 12.2613 24.0608 12.2475 23.9785 12.2503H23.9996ZM32.15 12.2503C32.0286 12.2503 31.9099 12.2863 31.809 12.3538C31.708 12.4212 31.6293 12.5171 31.5828 12.6293C31.5364 12.7415 31.5242 12.8649 31.5479 12.984C31.5716 13.1031 31.6301 13.2125 31.7159 13.2984C31.8018 13.3842 31.9112 13.4427 32.0303 13.4664C32.1494 13.4901 32.2728 13.4779 32.385 13.4314C32.4972 13.385 32.593 13.3063 32.6605 13.2053C32.728 13.1044 32.764 12.9857 32.764 12.8642C32.764 12.7014 32.6993 12.5453 32.5842 12.4301C32.469 12.315 32.3129 12.2503 32.15 12.2503ZM40.5616 12.3138C40.4794 12.2769 40.3905 12.2577 40.3005 12.2574C40.1376 12.2574 39.9815 12.3221 39.8663 12.4372C39.7512 12.5523 39.6865 12.7085 39.6865 12.8713C39.6865 13.0341 39.7512 13.1903 39.8663 13.3054C39.9815 13.4205 40.1376 13.4852 40.3005 13.4852C40.4247 13.4858 40.5462 13.4482 40.6484 13.3776C40.7506 13.3069 40.8287 13.2065 40.872 13.0901C40.7733 12.829 40.6674 12.5749 40.5616 12.3138ZM3.62006 30.5411C3.49689 30.5384 3.37577 30.5728 3.27242 30.6399C3.16908 30.707 3.08829 30.8035 3.04058 30.9171C2.99286 31.0307 2.98042 31.156 3.00487 31.2767C3.02932 31.3975 3.08953 31.5081 3.17767 31.5941C3.26581 31.6802 3.37781 31.7378 3.4991 31.7593C3.62039 31.7809 3.74537 31.7655 3.85778 31.7151C3.97019 31.6647 4.06483 31.5816 4.12941 31.4767C4.19398 31.3718 4.22551 31.2499 4.21987 31.1268C4.21275 30.9714 4.14685 30.8244 4.0355 30.7157C3.92415 30.6069 3.77566 30.5445 3.62006 30.5411ZM11.7705 30.5411C11.649 30.5411 11.5304 30.5771 11.4294 30.6446C11.3284 30.712 11.2497 30.8079 11.2033 30.9201C11.1568 31.0323 11.1447 31.1557 11.1683 31.2748C11.192 31.3939 11.2505 31.5033 11.3364 31.5892C11.4222 31.675 11.5316 31.7335 11.6507 31.7572C11.7698 31.7809 11.8932 31.7687 12.0054 31.7223C12.1176 31.6758 12.2135 31.5971 12.2809 31.4961C12.3484 31.3952 12.3844 31.2765 12.3844 31.155C12.3844 30.9922 12.3197 30.8361 12.2046 30.7209C12.0895 30.6058 11.9333 30.5411 11.7705 30.5411ZM19.9209 30.5411C19.7995 30.5411 19.6808 30.5771 19.5798 30.6446C19.4788 30.712 19.4002 30.8079 19.3537 30.9201C19.3072 31.0323 19.2951 31.1557 19.3188 31.2748C19.3424 31.3939 19.4009 31.5033 19.4868 31.5892C19.5726 31.675 19.682 31.7335 19.8011 31.7572C19.9202 31.7809 20.0436 31.7687 20.1558 31.7223C20.268 31.6758 20.3639 31.5971 20.4314 31.4961C20.4988 31.3952 20.5348 31.2765 20.5348 31.155C20.5348 30.9922 20.4701 30.8361 20.355 30.7209C20.2399 30.6058 20.0837 30.5411 19.9209 30.5411ZM28.0713 30.5411C27.9499 30.5411 27.8312 30.5771 27.7302 30.6446C27.6293 30.712 27.5506 30.8079 27.5041 30.9201C27.4576 31.0323 27.4455 31.1557 27.4692 31.2748C27.4929 31.3939 27.5513 31.5033 27.6372 31.5892C27.723 31.675 27.8324 31.7335 27.9515 31.7572C28.0706 31.7809 28.1941 31.7687 28.3062 31.7223C28.4184 31.6758 28.5143 31.5971 28.5818 31.4961C28.6492 31.3952 28.6852 31.2765 28.6852 31.155C28.6852 31.0744 28.6694 30.9946 28.6385 30.9201C28.6076 30.8456 28.5624 30.7779 28.5054 30.7209C28.4484 30.6639 28.3807 30.6187 28.3062 30.5879C28.2318 30.557 28.1519 30.5411 28.0713 30.5411ZM36.2217 30.5411C36.1003 30.5411 35.9816 30.5771 35.8806 30.6446C35.7797 30.712 35.701 30.8079 35.6545 30.9201C35.6081 31.0323 35.5959 31.1557 35.6196 31.2748C35.6433 31.3939 35.7017 31.5033 35.7876 31.5892C35.8735 31.675 35.9829 31.7335 36.1019 31.7572C36.221 31.7809 36.3445 31.7687 36.4567 31.7223C36.5688 31.6758 36.6647 31.5971 36.7322 31.4961C36.7996 31.3952 36.8356 31.2765 36.8356 31.155C36.8356 30.9922 36.771 30.8361 36.6558 30.7209C36.5407 30.6058 36.3845 30.5411 36.2217 30.5411ZM7.69879 24.5006C7.57737 24.5006 7.45867 24.5367 7.35771 24.6041C7.25675 24.6716 7.17807 24.7674 7.1316 24.8796C7.08513 24.9918 7.07297 25.1153 7.09666 25.2343C7.12035 25.3534 7.17882 25.4628 7.26468 25.5487C7.35054 25.6345 7.45993 25.693 7.57902 25.7167C7.69811 25.7404 7.82155 25.7282 7.93373 25.6818C8.04591 25.6353 8.1418 25.5566 8.20926 25.4557C8.27672 25.3547 8.31272 25.236 8.31272 25.1146C8.31272 24.9517 8.24804 24.7956 8.1329 24.6805C8.01777 24.5653 7.86162 24.5006 7.69879 24.5006ZM15.8492 24.5006C15.7278 24.5006 15.6091 24.5367 15.5081 24.6041C15.4072 24.6716 15.3285 24.7674 15.282 24.8796C15.2355 24.9918 15.2234 25.1153 15.2471 25.2343C15.2708 25.3534 15.3292 25.4628 15.4151 25.5487C15.501 25.6345 15.6103 25.693 15.7294 25.7167C15.8485 25.7404 15.972 25.7282 16.0841 25.6818C16.1963 25.6353 16.2922 25.5566 16.3597 25.4557C16.4271 25.3547 16.4631 25.236 16.4631 25.1146C16.4631 24.9517 16.3985 24.7956 16.2833 24.6805C16.1682 24.5653 16.012 24.5006 15.8492 24.5006ZM23.9996 24.5006C23.8782 24.5006 23.7595 24.5367 23.6585 24.6041C23.5576 24.6716 23.4789 24.7674 23.4324 24.8796C23.386 24.9918 23.3738 25.1153 23.3975 25.2343C23.4212 25.3534 23.4797 25.4628 23.5655 25.5487C23.6514 25.6345 23.7608 25.693 23.8799 25.7167C23.9989 25.7404 24.1224 25.7282 24.2346 25.6818C24.3467 25.6353 24.4426 25.5566 24.5101 25.4557C24.5775 25.3547 24.6136 25.236 24.6136 25.1146C24.6136 25.0321 24.597 24.9505 24.5649 24.8746C24.5327 24.7987 24.4856 24.7301 24.4263 24.6728C24.367 24.6155 24.2968 24.5707 24.2199 24.5412C24.143 24.5116 24.0608 24.4978 23.9785 24.5006H23.9996ZM32.15 24.5006C32.0286 24.5006 31.9099 24.5367 31.809 24.6041C31.708 24.6716 31.6293 24.7674 31.5828 24.8796C31.5364 24.9918 31.5242 25.1153 31.5479 25.2343C31.5716 25.3534 31.6301 25.4628 31.7159 25.5487C31.8018 25.6345 31.9112 25.693 32.0303 25.7167C32.1494 25.7404 32.2728 25.7282 32.385 25.6818C32.4972 25.6353 32.593 25.5566 32.6605 25.4557C32.728 25.3547 32.764 25.236 32.764 25.1146C32.764 24.9517 32.6993 24.7956 32.5842 24.6805C32.469 24.5653 32.3129 24.5006 32.15 24.5006ZM40.3005 24.5006C40.179 24.5006 40.0603 24.5367 39.9594 24.6041C39.8584 24.6716 39.7797 24.7674 39.7333 24.8796C39.6868 24.9918 39.6746 25.1153 39.6983 25.2343C39.722 25.3534 39.7805 25.4628 39.8663 25.5487C39.9522 25.6345 40.0616 25.693 40.1807 25.7167C40.2998 25.7404 40.4232 25.7282 40.5354 25.6818C40.6476 25.6353 40.7435 25.5566 40.8109 25.4557C40.8784 25.3547 40.9144 25.236 40.9144 25.1146C40.9144 25.0339 40.8985 24.9541 40.8677 24.8796C40.8368 24.8051 40.7916 24.7375 40.7346 24.6805C40.6776 24.6235 40.6099 24.5782 40.5354 24.5474C40.4609 24.5165 40.3811 24.5006 40.3005 24.5006ZM0.148194 37.259C0.0987977 37.4496 0.0493965 37.6189 0 37.7742C0.104642 37.6636 0.162758 37.5171 0.162305 37.3649C0.164557 37.329 0.159764 37.2931 0.148194 37.259ZM7.69879 36.751C7.57737 36.751 7.45867 36.787 7.35771 36.8544C7.25675 36.9219 7.17807 37.0178 7.1316 37.13C7.08513 37.2421 7.07297 37.3656 7.09666 37.4847C7.12035 37.6038 7.17882 37.7131 7.26468 37.799C7.35054 37.8849 7.45993 37.9433 7.57902 37.967C7.69811 37.9907 7.82155 37.9786 7.93373 37.9321C8.04591 37.8856 8.1418 37.8069 8.20926 37.706C8.27672 37.605 8.31272 37.4863 8.31272 37.3649C8.30723 37.2058 8.24013 37.055 8.12559 36.9444C8.01104 36.8338 7.85801 36.772 7.69879 36.7721V36.751ZM15.8492 36.751C15.7278 36.751 15.6091 36.787 15.5081 36.8544C15.4072 36.9219 15.3285 37.0178 15.282 37.13C15.2355 37.2421 15.2234 37.3656 15.2471 37.4847C15.2708 37.6038 15.3292 37.7131 15.4151 37.799C15.501 37.8849 15.6103 37.9433 15.7294 37.967C15.8485 37.9907 15.972 37.9786 16.0841 37.9321C16.1963 37.8856 16.2922 37.8069 16.3597 37.706C16.4271 37.605 16.4631 37.4863 16.4631 37.3649C16.4576 37.2058 16.3905 37.055 16.276 36.9444C16.1615 36.8338 16.0084 36.772 15.8492 36.7721V36.751ZM23.9785 36.7721C23.857 36.7721 23.7383 36.8081 23.6374 36.8756C23.5364 36.9431 23.4577 37.0389 23.4113 37.1511C23.3648 37.2633 23.3526 37.3867 23.3763 37.5058C23.4 37.6249 23.4585 37.7343 23.5443 37.8202C23.6302 37.906 23.7396 37.9645 23.8587 37.9882C23.9778 38.0119 24.1012 37.9997 24.2134 37.9533C24.3256 37.9068 24.4215 37.8281 24.4889 37.7271C24.5564 37.6262 24.5924 37.5075 24.5924 37.3861C24.5924 37.2232 24.5277 37.0671 24.4126 36.952C24.2974 36.8368 24.1413 36.7721 23.9785 36.7721ZM32.1289 36.7721C32.0074 36.7721 31.8887 36.8081 31.7878 36.8756C31.6868 36.9431 31.6081 37.0389 31.5617 37.1511C31.5152 37.2633 31.503 37.3867 31.5267 37.5058C31.5504 37.6249 31.6089 37.7343 31.6948 37.8202C31.7806 37.906 31.89 37.9645 32.0091 37.9882C32.1282 38.0119 32.2516 37.9997 32.3638 37.9533C32.476 37.9068 32.5719 37.8281 32.6393 37.7271C32.7068 37.6262 32.7428 37.5075 32.7428 37.3861C32.7429 37.2268 32.6811 37.0738 32.5705 36.9593C32.4599 36.8447 32.3092 36.7776 32.15 36.7721H32.1289Z" fill="white"/>
</svg>
