<svg width="11" height="11" viewBox="0 0 11 11" fill="none" xmlns="http://www.w3.org/2000/svg">
<path d="M10.9791 5.9793C10.8843 7.06297 10.4702 8.09419 9.78936 8.94256C9.10847 9.79093 8.1913 10.4183 7.15384 10.7454C6.11637 11.0726 5.0052 11.0847 3.96085 10.7802C2.9165 10.4758 1.98587 9.86855 1.28666 9.03522C0.587446 8.20189 0.151059 7.17991 0.0326717 6.09855C-0.0857153 5.0172 0.119224 3.92503 0.621565 2.96015C1.12391 1.99527 1.90108 1.20104 2.85483 0.677867C3.80857 0.154695 4.89604 -0.073917 5.97971 0.0209636C7.43276 0.148186 8.77578 0.847408 9.71333 1.9648C10.6509 3.08219 11.1062 4.52623 10.9791 5.9793Z" fill="#DBDBDB"/>
</svg>
