<svg width="6" height="11" viewBox="0 0 6 11" fill="none" xmlns="http://www.w3.org/2000/svg">
<path d="M5.25331 0.0872345C4.22154 1.83834 3.25516 3.62577 2.34691 5.44953C1.91822 6.34325 1.50406 7.23698 1.09717 8.13796C0.886453 8.61752 0.683002 9.10434 0.486821 9.59116C0.275481 10.0174 0.112205 10.4658 0 10.9281C0 10.979 0.0581315 11.0298 0.0944615 10.979C0.342215 10.6165 0.551632 10.2294 0.719338 9.82367C0.95185 9.35864 1.19163 8.89363 1.44594 8.42134C1.88674 7.50582 2.33723 6.59757 2.79741 5.69659C3.70566 3.87282 4.62117 2.06358 5.55122 0.254349C5.57338 0.214845 5.57894 0.168158 5.56668 0.124553C5.55441 0.080949 5.52533 0.0440044 5.48583 0.0218432C5.44633 -0.000318006 5.39964 -0.00588695 5.35603 0.0063768C5.31243 0.0186405 5.27547 0.0477298 5.25331 0.0872345Z" fill="#37474F"/>
</svg>
