<svg width="3" height="5" viewBox="0 0 3 5" fill="none" xmlns="http://www.w3.org/2000/svg">
<path d="M0 0C0 0 0 -1.92271e-06 0 0.0472766C1.37108 0.709176 2.02509 2.05662 2.45848 3.44346C2.38509 3.29842 2.2814 3.17084 2.15441 3.06936C2.02743 2.96788 1.88012 2.89486 1.72246 2.85526C1.56481 2.81566 1.40049 2.8104 1.24062 2.83983C1.08075 2.86925 0.929077 2.93269 0.795857 3.02583C0.795857 3.02583 0.795857 3.11251 0.795857 3.10463C1.04746 3.04125 1.31258 3.05806 1.55416 3.15272C1.79574 3.24737 2.00172 3.41514 2.1433 3.63257C2.38362 3.99499 2.58189 4.38361 2.73428 4.79089C2.78944 4.91697 3.02583 4.86969 2.98643 4.71997C3.14402 2.89975 1.91478 0.299431 0 0Z" fill="#263238"/>
</svg>
