<svg width="16" height="25" viewBox="0 0 16 25" fill="none" xmlns="http://www.w3.org/2000/svg">
<path d="M8.20698 0.000580291C8.39935 -0.0033562 8.58575 0.0674921 8.72692 0.198214C8.8681 0.328936 8.95306 0.509334 8.96391 0.701434V1.85784C10.9854 1.99042 12.9286 2.68997 14.5707 3.8763C14.8511 4.07954 15.0123 4.24775 15.0123 4.57715C14.991 4.77663 14.8942 4.96041 14.7417 5.09074C14.5892 5.22108 14.3926 5.28809 14.1923 5.278C13.9843 5.28342 13.7818 5.21093 13.6246 5.07476C12.2492 4.02766 10.6129 3.37798 8.89382 3.19647V11.2563C13.6877 12.1814 15.7061 13.8214 15.7061 16.6529C15.7061 19.7086 12.9027 21.8742 8.9569 21.9934V24.2431C8.9569 24.4438 8.87715 24.6364 8.7352 24.7783C8.59325 24.9203 8.40073 25 8.19998 25C7.99923 25 7.80671 24.9203 7.66476 24.7783C7.52281 24.6364 7.44306 24.4438 7.44306 24.2431V21.9583C4.84026 21.7951 2.35551 20.814 0.343411 19.1549C0.241028 19.0904 0.156128 19.0017 0.0962262 18.8965C0.0363247 18.7914 0.00327776 18.6731 0 18.5522C0.0208256 18.3589 0.112632 18.1802 0.257644 18.0507C0.402656 17.9213 0.590553 17.8502 0.784952 17.8513C0.993466 17.8423 1.19722 17.9153 1.35264 18.0546C3.06841 19.5675 5.22639 20.4868 7.50613 20.6757V12.4197C2.77537 11.4665 0.819997 9.8756 0.819997 6.9951C0.819997 4.11459 3.62341 1.85784 7.44306 1.77374V0.694423C7.45394 0.501686 7.54011 0.320941 7.68301 0.19115C7.82591 0.0613599 8.01409 -0.00708058 8.20698 0.000580291ZM7.50613 10.9689V3.09135C4.4434 3.14741 2.42495 4.82245 2.42495 6.89698C2.43195 8.85937 3.44119 10.0718 7.51315 10.9689H7.50613ZM8.90784 12.7281V20.6898C12.0617 20.6337 14.1082 18.9587 14.1082 16.765C14.1012 14.7746 13.0008 13.5621 8.90083 12.7281H8.90784Z" fill="black"/>
</svg>
