<svg width="2" height="2" viewBox="0 0 2 2" fill="none" xmlns="http://www.w3.org/2000/svg">
<path d="M0.497415 1.19911C0.737237 1.16027 0.974696 1.10803 1.20868 1.04263C1.47275 1.02088 1.7225 0.913493 1.91994 0.736791C1.97185 0.669558 2 0.587013 2 0.502073C2 0.417134 1.97185 0.334589 1.91994 0.267355C1.79603 0.149855 1.64341 0.0669832 1.47739 0.0270372C1.31136 -0.0129088 1.13776 -0.00852589 0.973959 0.0397515C0.625254 0.0920756 0.30841 0.272043 0.084881 0.544747C0.0337061 0.611641 0.00423455 0.692598 0.000422906 0.776736C-0.00338874 0.860873 0.0186381 0.944162 0.0635548 1.01541C0.108472 1.08666 0.174123 1.14245 0.251681 1.17529C0.329239 1.20812 0.414993 1.21644 0.497415 1.19911Z" fill="#263238"/>
</svg>
