<svg width="5" height="8" viewBox="0 0 5 8" fill="none" xmlns="http://www.w3.org/2000/svg">
<path d="M2.50271 0.0281049C3.11649 0.0237958 3.71032 0.245826 4.17072 0.651754C4.63112 1.05768 4.92577 1.61904 4.99838 2.22852C4.99439 2.24706 4.99439 2.26624 4.99838 2.28478C4.99838 2.48631 4.99838 2.70423 4.99838 2.93857C5.02225 3.98933 4.78044 5.0291 4.29537 5.9615C4.03649 6.44445 3.65555 6.85113 3.19053 7.141C2.7255 7.43087 2.19265 7.5938 1.64504 7.61357C1.6103 7.61546 1.57552 7.61038 1.54279 7.59859C1.51005 7.58681 1.48002 7.56858 1.45446 7.54498C1.4289 7.52138 1.40832 7.49289 1.39396 7.4612C1.3796 7.42951 1.37174 7.39527 1.37085 7.3605C1.37065 7.28943 1.39739 7.22091 1.44564 7.16874C1.4939 7.11657 1.56012 7.08461 1.63098 7.07928C2.09124 7.06455 2.53904 6.92626 2.92743 6.67888C3.31583 6.43149 3.63049 6.08413 3.83842 5.67326C4.1035 5.20203 4.28431 4.68817 4.37271 4.15478C4.13833 4.42091 3.84934 4.6334 3.52542 4.77776C3.20151 4.92213 2.85028 4.99497 2.49567 4.99134C1.83378 4.99134 1.19899 4.72841 0.730963 4.26038C0.262932 3.79235 0 3.15757 0 2.49567C0 1.83378 0.262932 1.19899 0.730963 0.730963C1.19899 0.262932 1.83378 0 2.49567 0L2.50271 0.0281049ZM4.49221 2.51676C4.4936 2.12437 4.37853 1.74038 4.16154 1.41344C3.94455 1.0865 3.6354 0.831309 3.27327 0.680181C2.91115 0.529053 2.51233 0.48878 2.1273 0.564479C1.74228 0.640178 1.38838 0.82845 1.11042 1.10542C0.832463 1.3824 0.64294 1.73562 0.565873 2.12037C0.488807 2.50513 0.527659 2.90409 0.677499 3.26675C0.82734 3.62941 1.08144 3.93946 1.4076 4.15761C1.73377 4.37576 2.11735 4.49221 2.50974 4.49221C2.77001 4.49407 3.02806 4.44429 3.26896 4.34577C3.50987 4.24724 3.72886 4.10192 3.91323 3.91821C4.0976 3.73449 4.2437 3.51602 4.34308 3.27546C4.44247 3.03491 4.49315 2.77703 4.49221 2.51676Z" fill="#F8F8F8"/>
</svg>
