<svg width="44" height="55" viewBox="0 0 44 55" fill="none" xmlns="http://www.w3.org/2000/svg">
<path d="M24.0936 0.854547C24.0936 0.854547 15.1105 -2.40059 10.3256 3.79535C4.93993 10.7806 7.43367 16.299 6.49764 24.7512C5.56162 33.2034 -1.11631 36.2699 0.161997 42.1305C1.4403 47.9912 9.06822 47.118 9.06822 47.118C9.06822 47.118 10.4653 53.8518 16.9546 54.4735C18.8466 54.6469 20.7517 54.3351 22.4897 53.5675C24.2277 52.8 25.7414 51.602 26.8877 50.0868C26.8877 50.0868 31.7075 52.9298 35.4726 50.5827C38.5601 48.6548 37.5681 43.2342 37.5681 43.2342C37.5681 43.2342 42.1715 44.3658 43.7501 40.2864C45.3986 36.0534 38.4273 33.1614 36.3807 27.6501C34.5226 22.6626 33.6704 9.35563 30.9042 5.0038C28.138 0.651971 24.0936 0.854547 24.0936 0.854547Z" fill="#263238"/>
</svg>
