<svg width="5" height="8" viewBox="0 0 5 8" fill="none" xmlns="http://www.w3.org/2000/svg">
<path d="M2.49283 1.62258e-05C2.91906 -0.00189495 3.3287 0.165096 3.6321 0.464469C3.9355 0.763842 4.10796 1.17121 4.11175 1.59742C4.11009 1.85088 4.04972 2.1005 3.93538 2.3267C3.82103 2.5529 3.65582 2.74953 3.45271 2.90115C3.9878 3.12171 4.42979 3.52109 4.70328 4.03116C4.97676 4.54122 5.0648 5.13037 4.95238 5.6981C4.83996 6.26584 4.53406 6.77699 4.08683 7.14434C3.6396 7.5117 3.07876 7.7125 2.5 7.7125C1.92124 7.7125 1.3604 7.5117 0.913175 7.14434C0.465947 6.77699 0.160042 6.26584 0.0476217 5.6981C-0.0647987 5.13037 0.0232396 4.54122 0.296725 4.03116C0.57021 3.52109 1.01221 3.12171 1.54729 2.90115C1.34642 2.74842 1.18365 2.55121 1.0718 2.32501C0.95994 2.09881 0.902013 1.84977 0.902573 1.59742C0.901629 1.38799 0.942065 1.18042 1.02156 0.986656C1.10106 0.79289 1.21806 0.616745 1.36582 0.468317C1.51359 0.319888 1.6892 0.202102 1.88261 0.121737C2.07602 0.0413713 2.28339 1.41009e-05 2.49283 1.62258e-05ZM2.49283 7.16334C2.88416 7.16334 3.26671 7.0472 3.59199 6.82964C3.91727 6.61207 4.17068 6.30288 4.3201 5.94119C4.46953 5.57951 4.50827 5.18161 4.4314 4.7979C4.35453 4.41419 4.1655 4.06194 3.88829 3.78573C3.61107 3.50951 3.25813 3.32177 2.87415 3.24629C2.49016 3.17082 2.09241 3.211 1.73127 3.36174C1.37013 3.51248 1.06185 3.767 0.845473 4.09307C0.629092 4.41914 0.514351 4.80209 0.515769 5.19343C0.51091 5.45722 0.559278 5.71928 0.657995 5.96395C0.756712 6.20862 0.903752 6.43087 1.09031 6.61743C1.27687 6.80399 1.49912 6.95103 1.7438 7.04975C1.98847 7.14847 2.25053 7.19684 2.51432 7.19198L2.49283 7.16334ZM2.49283 2.66477C2.78043 2.65918 3.05448 2.54147 3.25654 2.33673C3.45859 2.132 3.57269 1.85643 3.5745 1.56879C3.57027 1.35754 3.50386 1.15222 3.38357 0.978524C3.26327 0.804827 3.09443 0.670453 2.89817 0.592201C2.70191 0.51395 2.48693 0.4953 2.28013 0.538577C2.07332 0.581855 1.88386 0.685152 1.73544 0.835533C1.58703 0.985914 1.48626 1.17671 1.4457 1.38406C1.40515 1.59142 1.42663 1.80613 1.50746 2.00134C1.58829 2.19656 1.72486 2.3636 1.90012 2.4816C2.07539 2.5996 2.28155 2.66332 2.49283 2.66477Z" fill="#F8F8F8"/>
</svg>
