<svg width="5" height="8" viewBox="0 0 5 8" fill="none" xmlns="http://www.w3.org/2000/svg">
<path d="M0.713276 1.65747C0.968998 1.1697 1.35019 0.758982 1.81756 0.467652C2.28493 0.176322 2.82154 0.0149262 3.37207 0.000116012C3.44084 -0.00190678 3.50776 0.0225871 3.55896 0.0685365C3.61016 0.114486 3.64173 0.178376 3.64713 0.246959C3.64748 0.319001 3.62091 0.388578 3.57264 0.442062C3.52438 0.495546 3.45789 0.529088 3.38619 0.536116C2.92412 0.549386 2.47425 0.687514 2.08435 0.935856C1.69446 1.1842 1.37907 1.53348 1.17169 1.94662C0.909788 2.42117 0.728666 2.93596 0.635709 3.46995C1.02102 3.03557 1.54569 2.74908 2.11944 2.65978C2.69318 2.57047 3.28011 2.68395 3.77922 2.98068C4.27833 3.2774 4.6584 3.73883 4.85404 4.28553C5.04967 4.83223 5.04861 5.43003 4.85107 5.97605C4.65353 6.52206 4.27185 6.98213 3.77171 7.27711C3.27156 7.57209 2.68423 7.68353 2.11081 7.59223C1.53738 7.50092 1.01371 7.21259 0.629919 6.77686C0.246126 6.34113 0.026212 5.78526 0.00802271 5.20489C-0.00267424 5.04051 -0.00267424 4.87559 0.00802271 4.71121C-0.01767 3.65015 0.224909 2.5998 0.713276 1.65747ZM0.536963 5.13436C0.532518 5.18127 0.532518 5.22849 0.536963 5.2754C0.541174 5.30109 0.541174 5.3273 0.536963 5.35299C0.57083 5.87179 0.805105 6.35709 1.19026 6.70631C1.57542 7.05553 2.08127 7.24132 2.6009 7.22438C3.12053 7.20744 3.61321 6.9891 3.97479 6.61553C4.33638 6.24196 4.53856 5.74242 4.53856 5.22252C4.53856 4.70261 4.33638 4.20308 3.97479 3.82951C3.61321 3.45594 3.12053 3.2376 2.6009 3.22066C2.08127 3.20371 1.57542 3.38948 1.19026 3.73871C0.805105 4.08793 0.57083 4.57325 0.536963 5.09205V5.13436Z" fill="#F8F8F8"/>
</svg>
