<svg width="20" height="9" viewBox="0 0 20 9" fill="none" xmlns="http://www.w3.org/2000/svg">
<path d="M19.8018 8.57982L10.1651 8.78532L5.27706 8.86604C3.6477 8.90274 2.00367 8.86604 0.366972 8.91008H0.0366967V8.57982L0 0.366972V0H0.366972L10.0844 0.0440349C13.3211 0.0440349 16.5578 0.132096 19.8018 0.168793H20V0.366972C20 1.76147 19.9339 3.14862 19.9046 4.51376L19.8018 8.57982ZM19.8018 8.57982L19.6991 4.43301C19.6991 3.06053 19.611 1.71009 19.5963 0.366972L19.8018 0.565129C16.5578 0.565129 13.3211 0.682571 10.0844 0.68991L0.366972 0.733945L0.733945 0.366972L0.689907 8.57982L0.366972 8.24953C1.96697 8.24953 3.55963 8.24953 5.16697 8.29357L9.99633 8.37429L19.8018 8.57982Z" fill="#EBEBEB"/>
</svg>
