<svg width="6" height="8" viewBox="0 0 6 8" fill="none" xmlns="http://www.w3.org/2000/svg">
<path d="M4.71786 6.37199L0.377214 7.33149H0.339147C0.280251 7.35371 0.215287 7.35371 0.156391 7.33149C0.122562 7.3154 0.0923842 7.29254 0.067732 7.26433C0.0430798 7.23612 0.0244669 7.20317 0.0130493 7.16749C0.00163165 7.13181 -0.00235967 7.09416 0.0013365 7.05688C0.00503268 7.0196 0.0163443 6.98348 0.0345459 6.95073L3.40043 0.150412C3.41721 0.117229 3.44056 0.0878076 3.46908 0.0639376C3.49759 0.0400676 3.53067 0.0222408 3.56629 0.0115556C3.60191 0.000870315 3.63934 -0.00244948 3.67628 0.00178333C3.71323 0.00601613 3.74891 0.0177137 3.78119 0.0361779C3.83042 0.0638732 3.87222 0.10307 3.90303 0.150412C3.90164 0.165611 3.90164 0.180902 3.90303 0.196101L5.12146 5.69424L5.65451 5.57239C5.69101 5.56439 5.72874 5.56366 5.76552 5.57023C5.80231 5.57681 5.83745 5.59057 5.86891 5.61073C5.90038 5.63088 5.92757 5.65704 5.94893 5.6877C5.97029 5.71836 5.98538 5.75293 5.99339 5.78943C6.00139 5.82593 6.00212 5.86365 5.99555 5.90043C5.98897 5.93722 5.97522 5.97235 5.95506 6.00381C5.93491 6.03528 5.90875 6.06247 5.87809 6.08383C5.84743 6.10519 5.81285 6.1203 5.77635 6.1283L5.2433 6.24253L5.54028 7.62087C5.54806 7.65739 5.54851 7.69509 5.54158 7.73178C5.53466 7.76847 5.52051 7.80342 5.49996 7.83459C5.47941 7.86577 5.45287 7.89256 5.42188 7.91339C5.39089 7.93422 5.35609 7.94868 5.31946 7.95594C5.28341 7.96489 5.24591 7.96642 5.20926 7.96044C5.1726 7.95446 5.13755 7.94109 5.10621 7.92115C5.07488 7.90121 5.04791 7.87511 5.02697 7.84444C5.00603 7.81376 4.99155 7.77915 4.98439 7.7427L4.71786 6.37199ZM4.59601 5.81607L3.55274 1.12515L0.80366 6.66136L4.59601 5.81607Z" fill="#F8F8F8"/>
</svg>
