<svg width="6" height="8" viewBox="0 0 6 8" fill="none" xmlns="http://www.w3.org/2000/svg">
<path d="M1.08539 7.56389C1.05492 7.54596 1.02853 7.52187 1.00788 7.49318C0.987234 7.46448 0.972789 7.43179 0.965473 7.3972C0.958156 7.36262 0.958129 7.32689 0.965386 7.29229C0.972643 7.25769 0.987024 7.22498 1.00762 7.19624C1.02636 7.16477 1.05134 7.13746 1.08101 7.11599C1.11069 7.09452 1.14444 7.07935 1.1802 7.0714C1.21596 7.06346 1.25295 7.06291 1.28893 7.06979C1.32491 7.07667 1.3591 7.09083 1.3894 7.11141C1.84491 7.39427 2.39286 7.48813 2.91654 7.373C3.4428 7.25303 3.90053 6.93037 4.1904 6.47505C4.48027 6.01973 4.5789 5.46847 4.46489 4.94089C4.41143 4.67853 4.30586 4.42958 4.15443 4.20877C4.003 3.98796 3.8088 3.79979 3.58332 3.65541C3.35784 3.51102 3.10568 3.41336 2.84177 3.36821C2.57786 3.32305 2.30758 3.33132 2.04692 3.39253C1.78344 3.44892 1.53388 3.5574 1.3129 3.71159C1.09193 3.86579 0.904 4.06259 0.760164 4.29044C0.742092 4.32069 0.718103 4.34698 0.689621 4.36772C0.661138 4.38847 0.628751 4.40326 0.594416 4.41118C0.560081 4.4191 0.524497 4.42 0.489804 4.41383C0.45511 4.40766 0.422028 4.39455 0.392528 4.37528C0.358313 4.35991 0.328961 4.33546 0.307679 4.30458C0.302649 4.27652 0.302649 4.2478 0.307679 4.21974C0.311304 4.20106 0.311304 4.18186 0.307679 4.16318L0.00367075 1.08769C-0.00292478 1.04982 -0.000609957 1.01094 0.0104349 0.974124C0.0214797 0.937308 0.0409483 0.903569 0.0672989 0.875586C0.0847558 0.848353 0.107534 0.824927 0.134261 0.806704C0.160987 0.788481 0.191114 0.775841 0.222842 0.769539L3.69426 0.00596824C3.72907 -0.00145941 3.76501 -0.00196062 3.80002 0.00450106C3.83503 0.0109627 3.86842 0.0242622 3.89829 0.0436295C3.92816 0.0629968 3.95393 0.0880525 3.97412 0.117377C3.99431 0.146701 4.00852 0.179717 4.01595 0.214534C4.02337 0.249352 4.02386 0.285292 4.0174 0.320301C4.01094 0.35531 3.99765 0.388709 3.97829 0.418581C3.95892 0.448452 3.93385 0.474213 3.90453 0.494399C3.8752 0.514585 3.8422 0.528797 3.80738 0.536225L0.56928 1.24323L0.788451 3.5198C1.24942 3.09409 1.8497 2.85092 2.47698 2.83578C3.10427 2.82064 3.71558 3.03457 4.19655 3.43754C4.67752 3.84052 4.99519 4.40493 5.09013 5.02517C5.18506 5.64542 5.05076 6.279 4.71235 6.80739C4.33523 7.37884 3.75316 7.78376 3.08623 7.93861C2.74468 8.01425 2.39137 8.02004 2.04753 7.95565C1.70369 7.89126 1.37642 7.758 1.08539 7.56389Z" fill="#F8F8F8"/>
</svg>
