<svg width="6" height="8" viewBox="0 0 6 8" fill="none" xmlns="http://www.w3.org/2000/svg">
<path d="M0.146343 4.58163C-0.0889528 3.61792 -0.0396841 2.60665 0.288175 1.67037C0.399368 1.27182 0.616716 0.910961 0.917034 0.626325C1.21735 0.34169 1.58934 0.143972 1.99328 0.0542927C2.39722 -0.0353861 2.81794 -0.0136548 3.2105 0.117156C3.60305 0.247966 3.95269 0.482941 4.22209 0.796998C4.91382 1.51155 5.3899 2.40679 5.5956 3.37981C5.82072 4.34593 5.76372 5.35638 5.43138 6.29106C5.33219 6.69786 5.12094 7.06871 4.82161 7.36151C4.52228 7.6543 4.14685 7.85731 3.73796 7.94748C3.32906 8.03765 2.90309 8.01139 2.50837 7.87165C2.11366 7.73192 1.76602 7.48432 1.50493 7.15697C0.808137 6.45119 0.335473 5.55522 0.146343 4.58163ZM0.698727 4.46219C0.872101 5.32524 1.28919 6.12052 1.90056 6.75387C2.10078 7.00048 2.36575 7.18643 2.66574 7.29085C2.96574 7.39528 3.28888 7.41405 3.59895 7.34506C3.90902 7.27607 4.19373 7.12205 4.42115 6.90028C4.64857 6.6785 4.80971 6.39774 4.88647 6.0895C5.16559 5.25529 5.21231 4.36083 5.02162 3.50208C4.83093 2.64333 4.41003 1.8527 3.80407 1.21502C3.60385 0.96841 3.33889 0.782462 3.03889 0.678037C2.73889 0.573613 2.41573 0.554852 2.10566 0.623842C1.79559 0.692833 1.51088 0.846848 1.28346 1.06862C1.05604 1.2904 0.894924 1.57115 0.818166 1.87938C0.529628 2.71069 0.488141 3.6078 0.698727 4.46219Z" fill="#F8F8F8"/>
</svg>
