<svg width="6" height="8" viewBox="0 0 6 8" fill="none" xmlns="http://www.w3.org/2000/svg">
<path d="M1.19559 7.564L3.98729 3.63572C4.14932 3.41186 4.2622 3.15626 4.31852 2.88571C4.37483 2.61515 4.37332 2.33576 4.31407 2.06583C4.20795 1.5899 3.92641 1.17142 3.52556 0.893746C3.30336 0.734083 3.04969 0.623615 2.78143 0.569719C2.51318 0.515823 2.23651 0.519736 1.96988 0.581187C1.48944 0.681421 1.0638 0.957579 0.776487 1.35547L0.485238 1.76748C0.467416 1.7984 0.443155 1.82512 0.414089 1.84583C0.385023 1.86653 0.351841 1.88073 0.316797 1.88747C0.281753 1.89421 0.245657 1.89333 0.210985 1.88488C0.176313 1.87643 0.143878 1.86062 0.11586 1.83852C0.0865763 1.82003 0.0614759 1.79561 0.0421752 1.76685C0.0228746 1.73809 0.00980187 1.70562 0.00378281 1.67151C-0.00223625 1.6374 -0.00106155 1.60242 0.00722967 1.56879C0.0155209 1.53516 0.030746 1.50363 0.0519305 1.47623L0.336069 1.05003C0.702721 0.545576 1.24063 0.192015 1.84913 0.0555191C2.49491 -0.082466 3.16906 0.0391096 3.72596 0.393984C4.28286 0.748857 4.67782 1.30855 4.82553 1.95217C4.902 2.29424 4.90611 2.64853 4.8376 2.99228C4.7691 3.33603 4.62949 3.66166 4.42773 3.94828L2.03381 7.30827L5.5856 6.52687C5.65523 6.51435 5.72699 6.52967 5.78545 6.56952C5.8439 6.60938 5.88438 6.67059 5.89815 6.73998C5.91299 6.80778 5.90041 6.87871 5.86314 6.93726C5.82588 6.99582 5.76696 7.03726 5.69926 7.05254L1.53657 7.97601H1.49395C1.46065 7.9918 1.42426 7.99999 1.38741 7.99999C1.35055 7.99999 1.31413 7.9918 1.28083 7.97601C1.24671 7.95587 1.21719 7.92881 1.19414 7.89659C1.1711 7.86436 1.15504 7.82767 1.14701 7.78887C1.13899 7.75007 1.13917 7.71002 1.14753 7.67129C1.1559 7.63257 1.17227 7.59602 1.19559 7.564Z" fill="#F8F8F8"/>
</svg>
