<svg width="1" height="107" viewBox="0 0 1 107" fill="none" xmlns="http://www.w3.org/2000/svg">
<path d="M0.700491 107H0V104.163H0.700491V107ZM0.700491 102.034H0V99.1965H0.700491V102.034ZM0.700491 97.074H0V94.2371H0.700491V97.074ZM0.700491 92.1146H0V89.2776H0.700491V92.1146ZM0.700491 87.1481H0V84.3461H0.700491V87.1481ZM0.700491 82.1886H0V79.3516H0.700491V82.1886ZM0.700491 77.2291H0V74.3921H0.700491V77.2291ZM0.700491 72.2626H0V69.4607H0.700491V72.2626ZM0.700491 67.3032H0V64.4662H0.700491V67.3032ZM0.700491 62.3437H0V59.5067H0.700491V62.3437ZM0.700491 57.3842H0V54.5402H0.700491V57.3842ZM0.700491 52.4177H0V49.6158H0.700491V52.4177ZM0.700491 47.4583H0V44.6213H0.700491V47.4583ZM0.700491 42.4988H0V39.6618H0.700491V42.4988ZM0.700491 37.5323H0V34.7303H0.700491V37.5323ZM0.700491 32.5728H0V29.7358H0.700491V32.5728ZM0.700491 27.6133H0V24.7764H0.700491V27.6133ZM0.700491 22.6469H0V19.8449H0.700491V22.6469ZM0.700491 17.6874H0V14.8504H0.700491V17.6874ZM0.700491 12.7279H0V9.89093H0.700491V12.7279ZM0.700491 7.76844H0V4.93144H0.700491V7.76844ZM0.700491 2.80196H0V0H0.700491V2.80196Z" fill="white"/>
</svg>
