<svg width="9" height="4" viewBox="0 0 9 4" fill="none" xmlns="http://www.w3.org/2000/svg">
<path d="M8.96567 3.13543C8.32834 2.74035 7.62665 2.46018 6.89249 2.30762L4.61417 1.57505C3.09774 1.06957 1.5813 0.564084 0.0868418 0C0.0135841 0 -0.0376905 0.0879119 0.0355672 0.117215C1.55933 0.688625 3.06844 1.28933 4.5922 1.85342L6.8412 2.66658C7.50293 2.97687 8.21512 3.16547 8.94369 3.22335C8.95535 3.22626 8.9677 3.22442 8.978 3.21824C8.9883 3.21205 8.99573 3.20204 8.99865 3.19038C9.00156 3.17872 8.99972 3.16638 8.99354 3.15607C8.98736 3.14577 8.97733 3.13834 8.96567 3.13543Z" fill="#263238"/>
</svg>
