<svg width="10" height="4" viewBox="0 0 10 4" fill="none" xmlns="http://www.w3.org/2000/svg">
<path d="M9.95379 3.57335C9.24539 3.12387 8.48112 2.76921 7.68052 2.51843C6.84847 2.19898 6.01642 1.90182 5.16951 1.61209C3.49055 1.03263 1.79674 0.490314 0.0880738 0C0.0137838 0 -0.0382247 0.0891435 0.0360653 0.111431C1.71502 0.698322 3.37912 1.30007 5.02836 1.95382C5.85298 2.27327 6.6776 2.60758 7.49479 2.94932C8.24994 3.31476 9.04188 3.59867 9.85721 3.79622C9.88443 3.79981 9.91207 3.79443 9.93596 3.7809C9.95985 3.76736 9.97867 3.74641 9.98959 3.72122C10.0005 3.69603 10.0029 3.66797 9.99646 3.64128C9.99 3.6146 9.97502 3.59076 9.95379 3.57335Z" fill="#263238"/>
</svg>
