<svg width="6" height="8" viewBox="0 0 6 8" fill="none" xmlns="http://www.w3.org/2000/svg">
<path d="M0.00220636 3.98469C-0.0259645 3.00152 0.230738 2.03119 0.74139 1.19057C0.934932 0.830686 1.22235 0.529956 1.57311 0.320325C1.92387 0.110695 2.32485 0 2.73347 0C3.1421 0 3.5431 0.110695 3.89386 0.320325C4.24462 0.529956 4.53204 0.830686 4.72558 1.19057C5.23294 2.03021 5.50113 2.99259 5.50113 3.97361C5.50113 4.95464 5.23294 5.91698 4.72558 6.75663C4.5432 7.12957 4.2598 7.44383 3.90762 7.66364C3.55544 7.88345 3.14862 7.99998 2.73347 7.99998C2.31833 7.99998 1.91153 7.88345 1.55935 7.66364C1.20717 7.44383 0.92377 7.12957 0.74139 6.75663C0.230155 5.92441 -0.0267674 4.96095 0.00220636 3.98469ZM0.563971 3.98469C0.546336 4.85518 0.779871 5.71232 1.23663 6.45356C1.37459 6.74135 1.5911 6.98429 1.86117 7.15433C2.13125 7.32437 2.4439 7.41458 2.76305 7.41458C3.0822 7.41458 3.39484 7.32437 3.66492 7.15433C3.935 6.98429 4.15151 6.74135 4.28946 6.45356C4.73941 5.70865 4.97724 4.85494 4.97724 3.98469C4.97724 3.11443 4.73941 2.26073 4.28946 1.51581C4.15069 1.23002 3.93429 0.989055 3.66501 0.820461C3.39573 0.651867 3.08445 0.562464 2.76675 0.562464C2.44904 0.562464 2.13776 0.651867 1.86848 0.820461C1.5992 0.989055 1.3828 1.23002 1.24403 1.51581C0.78352 2.2527 0.549615 3.10864 0.57137 3.97731L0.563971 3.98469Z" fill="#F8F8F8"/>
</svg>
