<svg width="10" height="36" viewBox="0 0 10 36" fill="none" xmlns="http://www.w3.org/2000/svg">
<path d="M9.62715 0.0349815C8.14664 4.66067 6.68031 9.30759 5.30606 13.9687C3.93182 18.6298 2.55757 23.1776 1.52335 27.8741C0.935396 30.5376 0.474952 33.2153 0.000340742 35.9C-0.00155352 35.922 0.00449409 35.9439 0.0173864 35.9618C0.0302788 35.9796 0.0491612 35.9923 0.0705988 35.9974C0.0920365 36.0026 0.114605 35.9999 0.134209 35.9898C0.153814 35.9797 0.169153 35.9629 0.177434 35.9425C0.843306 33.6049 1.59418 31.2885 2.20339 28.9367C2.81259 26.5849 3.42887 24.233 4.01682 21.8529C5.18564 17.1989 6.27654 12.5236 7.50202 7.87669C8.2104 5.24862 8.96128 2.6418 9.71924 0.0349815C9.74049 -0.000437269 9.6484 -0.0216885 9.62715 0.0349815Z" fill="#37474F"/>
</svg>
