<svg width="22" height="10" viewBox="0 0 22 10" fill="none" xmlns="http://www.w3.org/2000/svg">
<path d="M16.9237 9.96437L5.00352 9.99979C4.34849 10.0054 3.69884 9.88123 3.09204 9.63444C2.48525 9.38765 1.93334 9.02313 1.46817 8.56191C1.003 8.1007 0.633801 7.55193 0.381842 6.94727C0.129883 6.34261 0.000158179 5.69403 0.000182243 5.03897C-0.00543254 4.38394 0.118745 3.73428 0.365535 3.12749C0.612325 2.5207 0.976848 1.96878 1.43806 1.50362C1.89928 1.03845 2.44804 0.669227 3.0527 0.417268C3.65737 0.165308 4.30595 0.0356056 4.961 0.0356297L16.8812 0.000182243C17.5362 -0.00543254 18.1858 0.118745 18.7926 0.365535C19.3994 0.612325 19.9513 0.976848 20.4165 1.43806C20.8817 1.89928 21.2509 2.44806 21.5029 3.05273C21.7548 3.65739 21.8845 4.30595 21.8845 4.961C21.8901 5.61604 21.7659 6.26571 21.5191 6.8725C21.2724 7.47929 20.9078 8.03119 20.4466 8.49636C19.9854 8.96153 19.4366 9.33075 18.832 9.5827C18.2273 9.83467 17.5787 9.96439 16.9237 9.96437Z" fill="white"/>
</svg>
