<svg width="2" height="8" viewBox="0 0 2 8" fill="none" xmlns="http://www.w3.org/2000/svg">
<path d="M1.4732 0.743043L0.401205 1.37071C0.363558 1.39729 0.319977 1.41424 0.274265 1.42008C0.227113 1.42019 0.180762 1.40786 0.139899 1.38433C0.0990359 1.3608 0.0651165 1.32692 0.0415406 1.28608C0.0219052 1.25666 0.00881179 1.22337 0.00316574 1.18845C-0.00248032 1.15354 -0.000558252 1.11781 0.00880467 1.0837C0.0181676 1.0496 0.0347433 1.01791 0.0574243 0.990769C0.0801053 0.963629 0.108362 0.941665 0.140265 0.926395L1.60015 0.0307301C1.66154 -0.00101143 1.73263 -0.00848525 1.79927 0.00981009C1.86592 0.0281054 1.92323 0.0708392 1.95981 0.129476C1.99536 0.188756 2.00792 0.259025 1.99509 0.326946V7.30895C1.99509 7.37816 1.9676 7.44453 1.91866 7.49347C1.86972 7.5424 1.80335 7.56989 1.73415 7.56989C1.66494 7.56989 1.59857 7.5424 1.54963 7.49347C1.5007 7.44453 1.4732 7.37816 1.4732 7.30895V0.743043Z" fill="#F8F8F8"/>
</svg>
