<svg width="22" height="13" viewBox="0 0 22 13" fill="none" xmlns="http://www.w3.org/2000/svg">
<path d="M18.016 10.0479L6.18337 12.6654C5.53165 12.8139 4.85693 12.8315 4.19836 12.7171C3.53979 12.6027 2.91049 12.3586 2.347 11.9991C1.78352 11.6395 1.29707 11.1716 0.915881 10.6225C0.534689 10.0735 0.266349 9.45413 0.126448 8.80051C-0.0221347 8.14928 -0.0399627 7.47504 0.0739657 6.81686C0.187894 6.15868 0.431313 5.52966 0.790143 4.96626C1.14897 4.40287 1.61607 3.9163 2.16434 3.53475C2.71261 3.15321 3.33116 2.88429 3.98414 2.74357L15.824 0.126121C16.4757 -0.022369 17.1504 -0.0399318 17.809 0.0744533C18.4676 0.188838 19.0969 0.432889 19.6604 0.792447C20.2239 1.152 20.7103 1.61991 21.0915 2.16899C21.4727 2.71807 21.741 3.33739 21.8809 3.99102C22.1708 5.30667 21.9266 6.68358 21.2019 7.81927C20.4772 8.95496 19.3313 9.75655 18.016 10.0479Z" fill="white"/>
</svg>
