<svg width="6" height="8" viewBox="0 0 6 8" fill="none" xmlns="http://www.w3.org/2000/svg">
<path d="M3.93857 0.436194L2.45642 2.83585C3.05039 2.82017 3.63098 3.01372 4.09671 3.38269C4.56243 3.75166 4.88368 4.27258 5.00429 4.85438C5.08025 5.18567 5.08878 5.52885 5.02937 5.8635C4.96995 6.19816 4.84381 6.51744 4.65846 6.80233C4.28878 7.38074 3.70517 7.78927 3.03517 7.93864C2.70566 8.01282 2.36457 8.0198 2.0323 7.95917C1.70003 7.89854 1.3834 7.77153 1.10132 7.58575C1.07113 7.56771 1.04488 7.54376 1.02417 7.51533C1.00346 7.4869 0.988703 7.45457 0.980794 7.42029C0.972884 7.38602 0.971987 7.35049 0.978144 7.31586C0.984302 7.28123 0.997395 7.2482 1.01663 7.21875C1.03535 7.18832 1.05996 7.16194 1.08901 7.14115C1.11807 7.12036 1.151 7.10558 1.18584 7.0977C1.22069 7.08981 1.25676 7.08895 1.29194 7.0952C1.32712 7.10144 1.36069 7.11465 1.3907 7.13405C1.84866 7.42161 2.40128 7.51764 2.9294 7.40146C3.45753 7.28527 3.91883 6.96618 4.21382 6.51297C4.36062 6.28678 4.4606 6.03346 4.50788 5.76799C4.55516 5.50252 4.54876 5.23027 4.48908 4.96731C4.36942 4.44231 4.04702 3.98592 3.59219 3.69769C3.13737 3.40945 2.58702 3.31276 2.06119 3.4287C2.02008 3.43599 1.97787 3.43407 1.9376 3.42309C1.89732 3.41211 1.85999 3.39233 1.82828 3.36518C1.79686 3.34648 1.7696 3.32154 1.74816 3.29192C1.72673 3.26229 1.71159 3.2286 1.70366 3.1929C1.69572 3.15721 1.69517 3.12027 1.70204 3.08436C1.70891 3.04845 1.72305 3.01432 1.74359 2.98406L3.15515 0.676157L0.332025 1.3043C0.297247 1.31262 0.261152 1.3139 0.225871 1.30807C0.190591 1.30224 0.156838 1.28941 0.126589 1.27034C0.0963388 1.25126 0.0702021 1.22635 0.0497276 1.19703C0.0292532 1.16771 0.0148487 1.13459 0.00736092 1.09962C-0.000960096 1.06484 -0.00224048 1.02876 0.00359164 0.993476C0.00942377 0.958196 0.022257 0.924432 0.0413275 0.894183C0.060398 0.863933 0.0853168 0.837807 0.114635 0.817332C0.143952 0.796858 0.177077 0.782453 0.212044 0.774966L3.68449 0.00566642C3.75559 -0.0089851 3.82959 0.00503854 3.8904 0.0446946C3.9512 0.0843507 3.99388 0.146419 4.00914 0.217392C4.01996 0.256655 4.01996 0.298122 4.00914 0.337385C3.99066 0.373647 3.96688 0.406949 3.93857 0.436194Z" fill="#F8F8F8"/>
</svg>
