<svg width="12" height="12" viewBox="0 0 12 12" fill="none" xmlns="http://www.w3.org/2000/svg">
<path opacity="0.1" d="M11.9603 5.31008C12.0965 6.48832 11.8804 7.68051 11.3394 8.73602C10.7984 9.79152 9.95668 10.663 8.9206 11.2404C7.88452 11.8177 6.70056 12.075 5.5183 11.9798C4.33604 11.8846 3.20853 11.4411 2.2782 10.7054C1.34788 9.96964 0.656486 8.97468 0.291366 7.84619C-0.0737536 6.7177 -0.0962221 5.50632 0.226813 4.36507C0.549849 3.22382 1.2039 2.20391 2.10631 1.4342C3.00873 0.664494 4.11902 0.179517 5.29694 0.0405357C6.87932 -0.144174 8.47025 0.30722 9.71985 1.29543C10.9694 2.28364 11.7753 3.72773 11.9603 5.31008Z" fill="black"/>
</svg>
