<svg width="22" height="36" viewBox="0 0 22 36" fill="none" xmlns="http://www.w3.org/2000/svg">
<path d="M13.1476 0.00228526C13.41 0.0293961 13.6515 0.157826 13.8206 0.360278C13.9898 0.56273 14.0732 0.823214 14.0533 1.08627L13.9106 2.74792C16.5905 3.19774 19.0744 4.43966 21.0422 6.3137C21.204 6.42504 21.3348 6.57581 21.4221 6.75176C21.5095 6.92771 21.5505 7.12303 21.5414 7.31925C21.5091 7.5956 21.3703 7.84848 21.1546 8.02423C20.939 8.19998 20.6633 8.28477 20.3861 8.26062C20.1107 8.24033 19.8544 8.1122 19.6729 7.90405C18.0362 6.25497 15.9503 5.124 13.6753 4.65206L12.6555 16.2908C18.8528 18.1806 21.3061 20.7837 20.9495 24.8486C20.5572 29.2559 16.585 32.0444 11.3718 31.752L11.0865 34.9968C11.0862 35.1359 11.057 35.2734 11.0008 35.4007C10.9446 35.5279 10.8627 35.6421 10.7601 35.736C10.6575 35.83 10.5366 35.9016 10.4049 35.9464C10.2732 35.9912 10.1337 36.0082 9.99512 35.9963C9.85654 35.9844 9.72193 35.9439 9.5998 35.8774C9.47767 35.8108 9.37068 35.7197 9.28559 35.6096C9.20049 35.4996 9.13915 35.3731 9.10544 35.2382C9.07172 35.1033 9.06636 34.9628 9.0897 34.8257L9.3821 31.5381C5.92261 30.9735 2.75305 29.2631 0.382059 26.6814C0.250315 26.5709 0.147179 26.4302 0.0813815 26.2713C0.015584 26.1124 -0.0109338 25.9399 0.0040874 25.7686C0.0379155 25.4976 0.172758 25.2494 0.381657 25.0736C0.590556 24.8977 0.858122 24.8072 1.13088 24.8201C1.40566 24.8426 1.66115 24.9704 1.84403 25.1767C3.84409 27.5218 6.58781 29.1101 9.61743 29.6767L10.6586 17.8241C4.54689 15.9057 2.16495 13.3882 2.53579 9.26618C2.90664 5.14413 6.81473 2.18453 11.9281 2.50545L12.0636 0.92938C12.0872 0.663819 12.2139 0.418066 12.4165 0.244778C12.6191 0.0714892 12.8815 -0.0155446 13.1476 0.00228526ZM10.8369 15.6917L11.8353 4.33827C7.79888 4.06727 4.92486 6.24952 4.661 9.23764C4.41139 12.0974 5.5881 13.9659 10.8369 15.7202V15.6917ZM12.4415 18.3875L11.436 29.8621C15.6008 30.1474 18.5105 27.9723 18.7886 24.813C19.0454 21.9746 17.7403 20.099 12.4415 18.416V18.3875Z" fill="#EBEBEB"/>
</svg>
