<svg width="6" height="8" viewBox="0 0 6 8" fill="none" xmlns="http://www.w3.org/2000/svg">
<path d="M4.62337 6.33882H0.277644C0.214978 6.3423 0.153461 6.32092 0.106485 6.27929C0.0768802 6.2576 0.0521998 6.22988 0.0340546 6.19797C0.0159093 6.16607 0.00470763 6.13068 0.00119451 6.09415C-0.00231862 6.05761 0.00194 6.02074 0.0136732 5.98596C0.0254063 5.95118 0.0443482 5.91927 0.0692764 5.89233L4.69778 0.102987C4.72017 0.0743231 4.74816 0.0505149 4.78005 0.0330206C4.81194 0.0155263 4.84706 0.00470906 4.88326 0.00122783C4.91947 -0.00225341 4.956 0.00168915 4.99063 0.0127868C5.02527 0.0238844 5.05729 0.0419169 5.08473 0.0657898C5.12844 0.103957 5.16173 0.152611 5.18147 0.207177C5.18147 0.207177 5.18147 0.207175 5.18147 0.251823V0.28902V5.78816H5.72468C5.7977 5.78816 5.86773 5.81717 5.91937 5.8688C5.971 5.92044 6.00001 5.99047 6.00001 6.06349C6.00001 6.13651 5.971 6.20654 5.91937 6.25817C5.86773 6.30981 5.7977 6.33882 5.72468 6.33882H5.18147V7.71546C5.17062 7.78165 5.1366 7.84181 5.08549 7.88524C5.03437 7.92866 4.96949 7.9525 4.90242 7.9525C4.83535 7.9525 4.77047 7.92866 4.71935 7.88524C4.66823 7.84181 4.63421 7.78165 4.62337 7.71546V6.33882ZM4.62337 5.78816V1.0927L0.84318 5.79559L4.62337 5.78816Z" fill="#F8F8F8"/>
</svg>
