<svg width="10" height="6" viewBox="0 0 10 6" fill="none" xmlns="http://www.w3.org/2000/svg">
<path d="M9.97581 5.41293C7.00233 3.13148 3.4813 1.50405 0.0895563 0.00590289C0.0744294 -0.00115633 0.0571224 -0.00191376 0.0414344 0.00379095C0.0257464 0.00949567 0.0129621 0.0211901 0.00590289 0.036317C-0.00115634 0.0514439 -0.00191376 0.0687626 0.00379095 0.0844505C0.00949566 0.100139 0.0211901 0.112911 0.036317 0.11997C3.45088 1.57249 6.55364 3.97561 9.92257 5.56502C9.93894 5.56251 9.95433 5.55559 9.96706 5.54501C9.9798 5.53444 9.98942 5.5206 9.99489 5.50497C10.0004 5.48934 10.0015 5.47252 9.9981 5.4563C9.99475 5.44009 9.98704 5.42509 9.97581 5.41293Z" fill="#263238"/>
</svg>
