<svg width="32" height="28" viewBox="0 0 32 28" fill="none" xmlns="http://www.w3.org/2000/svg">
<path d="M31.924 9.60725C31.5578 10.6599 30.8331 11.5502 29.8768 12.1226C30.5047 13.0214 30.7988 14.1113 30.7083 15.2039C30.4567 17.1184 27.3475 17.5586 27.3475 17.5586C27.8046 18.6265 27.9288 19.8076 27.7038 20.9473C27.2846 22.75 24.2103 23.6443 24.2103 23.6443C24.0933 24.8578 23.5396 25.9875 22.6522 26.8235C20.2067 28.9615 15.4415 27.5222 12.4091 26.6278C9.37668 25.7335 1.57908 20.3814 0 19.508L5.51282 0C5.51282 0 20.2486 0.111797 23.6793 1.66293C26.551 2.98349 32.7555 7.13382 31.924 9.60725Z" fill="#D3766A"/>
</svg>
