<svg width="21" height="36" viewBox="0 0 21 36" fill="none" xmlns="http://www.w3.org/2000/svg">
<path d="M11.1587 0.000101179C11.4242 0.00753177 11.6764 0.118257 11.8616 0.308741C12.0467 0.499225 12.1502 0.754433 12.1501 1.02008V2.68913C14.8577 2.93756 17.4289 3.99088 19.5325 5.71342C19.702 5.81358 19.8432 5.95513 19.943 6.1248C20.0428 6.29447 20.0979 6.4867 20.1031 6.68347C20.092 6.96475 19.9704 7.2303 19.7648 7.42256C19.5592 7.61483 19.2861 7.71832 19.0047 7.71059C18.8662 7.71337 18.7285 7.68828 18.5998 7.63682C18.4712 7.58536 18.3542 7.50857 18.2558 7.41101C16.5036 5.88484 14.34 4.90972 12.036 4.60784L11.872 16.2913C18.1916 17.7178 20.8307 20.1358 20.7736 24.2229C20.7094 28.6523 16.9505 31.7265 11.7293 31.8192L11.6865 35.0789C11.6653 35.3301 11.5505 35.5641 11.3649 35.7347C11.1793 35.9053 10.9364 36 10.6844 36C10.4323 36 10.1894 35.9053 10.0038 35.7347C9.8182 35.5641 9.70342 35.3301 9.68221 35.0789L9.73214 31.7764C6.24038 31.4652 2.95339 29.9937 0.395396 27.5966C0.28543 27.5085 0.194217 27.3992 0.127157 27.2753C0.0600969 27.1513 0.0185422 27.0152 0.00493318 26.8749C-0.00867581 26.7346 0.00594164 26.593 0.0479238 26.4585C0.0899059 26.324 0.158409 26.1992 0.249381 26.0916C0.340353 25.9839 0.451955 25.8956 0.577611 25.8318C0.703268 25.7679 0.840422 25.7299 0.981004 25.72C1.12159 25.71 1.26275 25.7283 1.39615 25.7737C1.52955 25.8192 1.65251 25.8909 1.75775 25.9847C3.91832 28.1698 6.76354 29.5471 9.81773 29.8863L9.98891 17.9889C3.74777 16.5267 1.19425 14.1942 1.25131 10.0216C1.30837 5.84894 5.03166 2.64634 10.1244 2.58928V1.00581C10.1263 0.871859 10.1545 0.739592 10.2075 0.616553C10.2605 0.493515 10.3372 0.382118 10.4332 0.288726C10.5293 0.195334 10.6428 0.121773 10.7673 0.0722492C10.8917 0.0227258 11.0247 -0.00178534 11.1587 0.000101179ZM10.0174 15.849L10.1815 4.43666C6.13012 4.43666 3.42681 6.84752 3.38401 9.85754C3.34122 12.7106 4.65363 14.4796 10.0174 15.849ZM11.822 18.4239L11.658 29.9433C15.8306 29.9433 18.5767 27.5325 18.6195 24.3655C18.6623 21.4839 17.2286 19.7078 11.822 18.4239Z" fill="#EBEBEB"/>
</svg>
