<svg width="18" height="19" viewBox="0 0 18 19" fill="none" xmlns="http://www.w3.org/2000/svg">
<path d="M5.38369 6.74032C5.38087 6.88401 5.32831 7.02228 5.23498 7.13156C5.14164 7.24085 5.01329 7.31439 4.87181 7.33966C4.73033 7.36492 4.58447 7.34035 4.45908 7.27013C4.33368 7.1999 4.23652 7.08836 4.18414 6.95453L4.80534 6.12627C4.96193 6.13539 5.10909 6.20409 5.21663 6.31827C5.32418 6.43245 5.38395 6.58346 5.38369 6.74032ZM13.0094 6.11198C12.8865 6.11198 12.7664 6.14842 12.6643 6.21667C12.5621 6.28493 12.4825 6.38195 12.4355 6.49546C12.3885 6.60896 12.3762 6.73387 12.4001 6.85437C12.4241 6.97487 12.4833 7.08555 12.5701 7.17243C12.657 7.2593 12.7677 7.31847 12.8882 7.34244C13.0087 7.3664 13.1336 7.35411 13.2471 7.30709C13.3606 7.26008 13.4576 7.18045 13.5259 7.0783C13.5942 6.97614 13.6306 6.85605 13.6306 6.73319C13.6306 6.65161 13.6145 6.57082 13.5833 6.49546C13.5521 6.42009 13.5063 6.35161 13.4486 6.29393C13.391 6.23625 13.3225 6.19049 13.2471 6.15927C13.1717 6.12805 13.091 6.11198 13.0094 6.11198ZM8.93949 1.23525C9.08528 1.22379 9.22219 1.16069 9.3256 1.05729C9.429 0.953881 9.49211 0.816965 9.50356 0.671178C9.31792 0.856822 9.12514 1.04246 8.93949 1.23525ZM17.5077 0.149948C17.3966 0.0537389 17.2548 0.000533542 17.1078 0C16.9431 0 16.7851 0.0654505 16.6686 0.181947C16.5521 0.298444 16.4867 0.45644 16.4867 0.621191C16.4867 0.785942 16.5521 0.94395 16.6686 1.06045C16.7851 1.17694 16.9431 1.24239 17.1078 1.24239C17.1912 1.24405 17.2739 1.22767 17.3503 1.1944C17.4267 1.16113 17.495 1.11174 17.5505 1.04961C17.572 0.735438 17.5648 0.435555 17.5363 0.149948H17.5077ZM12.9808 18.5073C12.8994 18.5071 12.8188 18.5234 12.744 18.5553C12.6691 18.5873 12.6015 18.6341 12.5453 18.693L13.5877 19C13.5595 18.8654 13.4873 18.7441 13.3827 18.6549C13.278 18.5658 13.1467 18.5139 13.0094 18.5073H12.9808ZM0.614055 12.3953C0.543576 12.3962 0.473679 12.4082 0.406989 12.431C0.257046 12.6524 0.128523 12.8666 0 13.0594C0.0108623 13.2147 0.0803223 13.3601 0.194324 13.4661C0.308325 13.5722 0.458355 13.631 0.614055 13.6306C0.778806 13.6306 0.936808 13.5651 1.0533 13.4486C1.1698 13.3321 1.23525 13.1741 1.23525 13.0094C1.23525 12.8446 1.1698 12.6866 1.0533 12.5701C0.936808 12.4536 0.778806 12.3882 0.614055 12.3882V12.3953ZM8.86095 12.3953C8.73809 12.3953 8.61799 12.4318 8.51584 12.5C8.41368 12.5683 8.33406 12.6653 8.28704 12.7788C8.24002 12.8923 8.22772 13.0172 8.25169 13.1377C8.27566 13.2582 8.33482 13.3689 8.4217 13.4558C8.50857 13.5427 8.61926 13.6018 8.73976 13.6258C8.86026 13.6498 8.98516 13.6375 9.09867 13.5904C9.21218 13.5434 9.3092 13.4638 9.37745 13.3616C9.44571 13.2595 9.48214 13.1394 9.48214 13.0165C9.48231 12.8566 9.4208 12.7028 9.31041 12.5871C9.20002 12.4714 9.04926 12.4027 8.88951 12.3953H8.86095Z" fill="white"/>
</svg>
