<svg width="5" height="8" viewBox="0 0 5 8" fill="none" xmlns="http://www.w3.org/2000/svg">
<path d="M4.59597 0.511349L2.53606 2.63796C3.14997 2.75454 3.70325 3.0835 4.09887 3.56719C4.49449 4.05087 4.70721 4.65839 4.69972 5.28322C4.70299 5.63993 4.63449 5.99365 4.49828 6.32334C4.36208 6.65303 4.16095 6.95196 3.90687 7.20234C3.65675 7.45505 3.35901 7.65567 3.03087 7.79258C2.70274 7.92949 2.35072 7.99998 1.99517 7.99998C1.63961 7.99998 1.28757 7.92949 0.959435 7.79258C0.631297 7.65567 0.333557 7.45505 0.083441 7.20234C0.0570051 7.17616 0.0360296 7.14501 0.0217082 7.11067C0.00738681 7.07633 0 7.03949 0 7.00229C0 6.96508 0.00738681 6.92824 0.0217082 6.8939C0.0360296 6.85957 0.0570051 6.82841 0.083441 6.80223C0.109084 6.77486 0.140068 6.75304 0.17448 6.73813C0.208892 6.72321 0.245991 6.71551 0.283496 6.71551C0.321 6.71551 0.358123 6.72321 0.392534 6.73813C0.426946 6.75304 0.45793 6.77486 0.483573 6.80223C0.879494 7.19016 1.41123 7.40818 1.96552 7.40984C2.51976 7.40084 3.04972 7.18089 3.44747 6.79482C3.74076 6.49584 3.94028 6.11769 4.02152 5.70683C4.10275 5.29597 4.06216 4.87031 3.90472 4.48221C3.74728 4.09412 3.47987 3.76048 3.13535 3.52235C2.79082 3.28421 2.38421 3.15196 1.96552 3.14182C1.921 3.14396 1.87664 3.13491 1.83652 3.1155C1.79639 3.09608 1.76177 3.06692 1.73582 3.03068C1.68198 2.97653 1.65175 2.90325 1.65175 2.82689C1.65175 2.75053 1.68198 2.67728 1.73582 2.62313L3.71421 0.570639H0.6614C0.623805 0.571629 0.586388 0.56508 0.551366 0.551373C0.516345 0.537667 0.484437 0.517084 0.457501 0.490839C0.430565 0.464594 0.409158 0.43321 0.394547 0.398556C0.379936 0.363903 0.372419 0.326674 0.372432 0.289066C0.371442 0.25147 0.377991 0.214054 0.391698 0.179032C0.405404 0.144011 0.425987 0.112103 0.452232 0.0851666C0.478477 0.0582306 0.509838 0.0368241 0.544492 0.0222128C0.579146 0.00760148 0.616375 8.45261e-05 0.653983 9.75506e-05H4.35885C4.39645 -0.00089214 4.43386 0.00565715 4.46889 0.0193636C4.50391 0.03307 4.53584 0.0536525 4.56277 0.0798979C4.58971 0.106143 4.61112 0.137504 4.62573 0.172158C4.64034 0.206812 4.64786 0.24404 4.64784 0.281649C4.66043 0.322694 4.66043 0.366578 4.64784 0.407624C4.64386 0.447392 4.62539 0.484298 4.59597 0.511349Z" fill="#F8F8F8"/>
</svg>
