<svg width="6" height="8" viewBox="0 0 6 8" fill="none" xmlns="http://www.w3.org/2000/svg">
<path d="M4.65639 6.33931H0.277828C0.247201 6.34389 0.21594 6.34158 0.186315 6.33256C0.156689 6.32355 0.129458 6.30804 0.106573 6.28718C0.0769469 6.26547 0.0522378 6.23773 0.0340799 6.2058C0.015922 6.17387 0.00471242 6.13849 0.00119683 6.10193C-0.00231875 6.06536 0.00193149 6.02847 0.0136729 5.99366C0.0254142 5.95886 0.0443807 5.92693 0.0693264 5.89997L4.70107 0.106573C4.72278 0.0769469 4.75052 0.0522378 4.78244 0.0340799C4.81437 0.015922 4.84978 0.00471242 4.88634 0.00119683C4.92291 -0.00231875 4.9598 0.00193149 4.99461 0.0136729C5.02941 0.0254142 5.06132 0.0443807 5.08828 0.0693264C5.12748 0.109835 5.15792 0.158004 5.17766 0.210812C5.17766 0.210812 5.17766 0.21081 5.17766 0.25549V0.292736V5.79571H5.71381C5.78688 5.79571 5.85696 5.82473 5.90863 5.8764C5.9603 5.92807 5.98932 5.99815 5.98932 6.07122C5.98932 6.1443 5.9603 6.2144 5.90863 6.26607C5.85696 6.31774 5.78688 6.34676 5.71381 6.34676H5.17766V7.72435C5.17767 7.76117 5.17029 7.79763 5.15598 7.83155C5.14167 7.86547 5.1207 7.89617 5.09432 7.92186C5.06794 7.94754 5.03669 7.96768 5.0024 7.98108C4.96811 7.99448 4.93149 8.00089 4.89468 7.99989C4.8222 7.99801 4.7532 7.96838 4.70193 7.91711C4.65066 7.86584 4.62105 7.79683 4.61917 7.72435L4.65639 6.33931ZM4.65639 5.78828V1.08952L0.836318 5.8255L4.65639 5.78828Z" fill="#F8F8F8"/>
</svg>
