<svg width="20" height="9" viewBox="0 0 20 9" fill="none" xmlns="http://www.w3.org/2000/svg">
<path d="M19.7946 8.57668L10.1687 8.78211L5.28245 8.86282C3.64636 8.89951 2.00294 8.86282 0.366838 8.90684H0.0440188V8.57668L0 0.366838V0H0.366838L10.0807 0.0440188C13.3236 0.0440188 16.5591 0.13207 19.7946 0.168754H20V0.366838C20 1.76082 19.934 3.14747 19.9046 4.5121L19.7946 8.57668ZM19.7946 8.57668L19.6919 4.43141C19.6919 3.05944 19.6112 1.70947 19.5965 0.366838L19.7946 0.564923C16.5591 0.601606 13.3236 0.682321 10.0807 0.689657L0.366838 0.733676L0.733676 0.366838L0.696979 8.57668L0.366838 8.24651C1.96625 8.24651 3.56566 8.24651 5.17241 8.29053L10 8.37125L19.7946 8.57668Z" fill="#EBEBEB"/>
</svg>
