<svg width="2" height="2" viewBox="0 0 2 2" fill="none" xmlns="http://www.w3.org/2000/svg">
<path d="M1.54658 1.108C1.29874 1.09375 1.0519 1.06554 0.807239 1.0235C0.554179 1.02759 0.306785 0.948421 0.103109 0.798181C0.0464231 0.736092 0.0110664 0.657511 0.00219926 0.573907C-0.00666783 0.490303 0.0114245 0.406056 0.053825 0.333458C0.165797 0.205763 0.309069 0.109401 0.46956 0.0538459C0.630052 -0.00170884 0.802242 -0.0145474 0.969196 0.0165959C1.31655 0.0341543 1.64511 0.179628 1.89161 0.424993C1.94808 0.486138 1.98453 0.563083 1.99606 0.645517C2.00759 0.727951 1.99365 0.811939 1.95612 0.886235C1.91859 0.96053 1.85926 1.02159 1.78607 1.06122C1.71287 1.10085 1.62931 1.11718 1.54658 1.108Z" fill="#263238"/>
</svg>
