<svg width="140" height="20" viewBox="0 0 140 20" fill="none" xmlns="http://www.w3.org/2000/svg">
<path d="M139.923 19.7604L137.128 19.446L137.205 18.7472L140 19.0617L139.923 19.7604ZM134.99 19.2084L132.195 18.894L132.272 18.1953L135.067 18.5097L134.99 19.2084ZM130.057 18.6564L127.262 18.342L127.339 17.6432L130.134 17.9647L130.057 18.6564ZM125.124 18.1044L122.329 17.79L122.406 17.0912L125.201 17.4057L125.124 18.1044ZM120.191 17.5524L117.396 17.238L117.473 16.5392L120.268 16.8537L120.191 17.5524ZM115.299 17.0004L112.504 16.686L112.581 15.9872L115.376 16.3016L115.299 17.0004ZM110.366 16.4554L107.571 16.134L107.648 15.4352L110.443 15.7497L110.366 16.4554ZM105.433 15.9034L102.638 15.5889L102.715 14.8902L105.51 15.2046L105.433 15.9034ZM100.5 15.3514L97.7051 15.0369L97.782 14.3382L100.577 14.6526L100.5 15.3514ZM95.574 14.7994L92.779 14.4849L92.8559 13.7862L95.6508 14.1006L95.574 14.7994ZM90.6408 14.2473L87.8459 13.9329L87.9297 13.2342L90.7247 13.5486L90.6408 14.2473ZM85.7077 13.6954L82.9128 13.3809L82.9896 12.6822L85.7846 12.9966L85.7077 13.6954ZM80.7746 13.1433L77.9796 12.8289L78.0565 12.1302L80.8515 12.4446L80.7746 13.1433ZM75.8415 12.5983L73.0465 12.2769L73.1234 11.5782L75.9183 11.8926L75.8415 12.5983ZM70.8874 12.0743L68.0924 11.7598L68.1693 11.0611L70.9643 11.3755L70.8874 12.0743ZM65.9543 11.5223L63.1593 11.2078L63.2362 10.5091L66.0311 10.8235L65.9543 11.5223ZM61.0211 10.9703L58.2262 10.6558L58.3031 9.95708L61.098 10.2785L61.0211 10.9703ZM56.088 10.4182L53.2931 10.1038L53.3699 9.40506L56.1649 9.71951L56.088 10.4182ZM51.1829 9.83829L48.3879 9.52386L48.4648 8.82512L51.2597 9.13955L51.1829 9.83829ZM46.2567 9.28628L43.4618 8.97185L43.5456 8.27311L46.3406 8.58754L46.2567 9.28628ZM41.3236 8.74126L38.5286 8.41985L38.6055 7.7211L41.4005 8.03554L41.3236 8.74126ZM36.3905 8.18926L33.5955 7.87483L33.6724 7.17609L36.4674 7.49052L36.3905 8.18926ZM31.4574 7.63725L28.6624 7.32282L28.7393 6.62407L31.5342 6.93851L31.4574 7.63725ZM26.5662 7.08525L23.7712 6.77081L23.8481 6.07207L26.643 6.39349L26.5662 7.08525ZM21.6331 6.53324L18.8381 6.2188L18.915 5.52006L21.7099 5.8345L21.6331 6.53324ZM16.6999 5.98123L13.905 5.6668L13.9818 4.96806L16.7768 5.28249L16.6999 5.98123ZM11.7668 5.42923L10.0898 5.24755C9.69854 5.19864 9.31423 5.14274 8.92992 5.07286L9.0557 4.37412C9.42604 4.43701 9.79637 4.49292 10.1667 4.53484L11.8437 4.72349L11.7668 5.42923ZM6.82671 4.54881C5.90767 4.2504 5.01489 3.87647 4.15751 3.43083L4.48592 2.80895C5.30601 3.23829 6.16166 3.59598 7.04332 3.87802L6.82671 4.54881ZM2.27091 2.29187C2.04033 2.12418 1.80974 1.95648 1.57217 1.78179L0 0.552002L0.426233 0L1.9984 1.22978C2.21501 1.39748 2.43861 1.55819 2.66221 1.7189L2.27091 2.29187Z" fill="white"/>
</svg>
