<svg width="11" height="11" viewBox="0 0 11 11" fill="none" xmlns="http://www.w3.org/2000/svg">
<path d="M10.9995 5.57811C10.984 6.66576 10.6464 7.72439 10.0293 8.62017C9.41224 9.51594 8.54341 10.2086 7.53267 10.6106C6.52193 11.0126 5.41466 11.1059 4.35092 10.8786C3.28717 10.6514 2.31471 10.1138 1.55648 9.33387C0.798245 8.55395 0.288283 7.5667 0.0911113 6.49697C-0.10606 5.42724 0.0184097 4.32306 0.448754 3.32406C0.879099 2.32506 1.596 1.47609 2.50882 0.884512C3.42164 0.292934 4.48939 -0.014691 5.57704 0.000539372C6.29933 0.0106537 7.01254 0.162958 7.67596 0.448744C8.33939 0.734531 8.94003 1.1482 9.44356 1.66614C9.9471 2.18408 10.3437 2.79614 10.6106 3.46736C10.8776 4.13859 11.0097 4.85582 10.9995 5.57811Z" fill="#DBDBDB"/>
</svg>
