<svg width="12" height="12" viewBox="0 0 12 12" fill="none" xmlns="http://www.w3.org/2000/svg">
<path opacity="0.1" d="M11.9593 5.30269C12.0972 6.48137 11.8825 7.67447 11.3424 8.73112C10.8022 9.78777 9.9608 10.6605 8.9246 11.239C7.88841 11.8174 6.70395 12.0756 5.52102 11.9809C4.33809 11.8861 3.20982 11.4427 2.27889 10.7067C1.34796 9.97075 0.656189 8.97524 0.291061 7.84609C-0.0740674 6.71694 -0.096159 5.50486 0.227588 4.36316C0.551336 3.22145 1.20638 2.2014 2.10987 1.43199C3.01337 0.662572 4.12474 0.178361 5.30343 0.0405913C6.88384 -0.144132 8.4729 0.306476 9.7211 1.29329C10.9693 2.28011 11.7744 3.72231 11.9593 5.30269Z" fill="black"/>
</svg>
