<svg width="11" height="11" viewBox="0 0 11 11" fill="none" xmlns="http://www.w3.org/2000/svg">
<path d="M10.9771 6.00091C10.8781 7.0835 10.4605 8.11246 9.77706 8.95785C9.0936 9.80324 8.17493 10.4271 7.13709 10.7507C6.09926 11.0743 4.98881 11.083 3.94599 10.7759C2.90318 10.4687 1.97477 9.85942 1.27805 9.02493C0.581324 8.19043 0.14753 7.16818 0.0314491 6.08729C-0.084632 5.00639 0.12221 3.91534 0.625852 2.95193C1.12949 1.98852 1.90734 1.19599 2.86116 0.674403C3.81497 0.152818 4.90196 -0.0744165 5.98484 0.0214144C6.70565 0.0852036 7.40678 0.29061 8.04807 0.625856C8.68935 0.961102 9.25818 1.41959 9.72195 1.97506C10.1857 2.53054 10.5353 3.17208 10.7507 3.86291C10.9661 4.55374 11.043 5.28029 10.9771 6.00091Z" fill="#DBDBDB"/>
</svg>
