<svg width="5" height="8" viewBox="0 0 5 8" fill="none" xmlns="http://www.w3.org/2000/svg">
<path d="M0.711421 1.65982C0.964922 1.17162 1.34452 0.760193 1.81079 0.468309C2.27707 0.176424 2.81299 0.0147199 3.36289 2.56877e-07C3.4314 -9.46949e-05 3.49734 0.0261371 3.54707 0.0732546C3.59681 0.120372 3.62655 0.184788 3.63016 0.253203C3.63217 0.323642 3.607 0.392149 3.55986 0.444528C3.51272 0.496906 3.44724 0.529132 3.37697 0.534523C2.91652 0.549254 2.46851 0.687624 2.07994 0.935115C1.69138 1.18261 1.37659 1.5301 1.16857 1.94114C0.908054 2.41535 0.725227 2.92824 0.627027 3.4603C1.01018 3.0239 1.53347 2.73471 2.10684 2.6425C2.6802 2.5503 3.26777 2.66084 3.76842 2.95512C4.26908 3.24939 4.65148 3.70898 4.84983 4.25479C5.04819 4.80059 5.0501 5.39847 4.8552 5.94552C4.6603 6.49257 4.28079 6.95458 3.78201 7.25201C3.28323 7.54945 2.69636 7.6637 2.12242 7.57512C1.54848 7.48654 1.02338 7.20067 0.63748 6.7667C0.251577 6.33274 0.0290174 5.77783 0.00811044 5.19748C-0.00270348 5.0312 -0.00270348 4.86439 0.00811044 4.69811C-0.0166274 3.64232 0.225267 2.59735 0.711421 1.65982ZM0.535593 5.1201C0.53116 5.16688 0.53116 5.21399 0.535593 5.26077C0.539793 5.28639 0.539793 5.31251 0.535593 5.33813C0.569367 5.8555 0.802997 6.33948 1.18709 6.68774C1.57119 7.036 2.07564 7.22126 2.59384 7.20436C3.11204 7.18747 3.60336 6.96973 3.96395 6.59719C4.32455 6.22465 4.52616 5.72649 4.52616 5.20802C4.52616 4.68954 4.32455 4.19139 3.96395 3.81884C3.60336 3.4463 3.11204 3.22856 2.59384 3.21167C2.07564 3.19477 1.57119 3.38005 1.18709 3.72831C0.802997 4.07657 0.569367 4.56053 0.535593 5.0779V5.1201Z" fill="#F8F8F8"/>
</svg>
