<svg width="5" height="8" viewBox="0 0 5 8" fill="none" xmlns="http://www.w3.org/2000/svg">
<path d="M0.109122 7.43543L3.78639 4.08912C4.09058 3.81269 4.30405 3.45072 4.39874 3.05074C4.49342 2.65076 4.46491 2.23149 4.31693 1.84802C4.16895 1.46454 3.90843 1.13479 3.5696 0.902102C3.23077 0.669412 2.82949 0.544659 2.41846 0.544229C1.90934 0.543957 1.41764 0.729665 1.0358 1.06642L0.653373 1.41942C0.628574 1.44639 0.598445 1.46792 0.564897 1.48265C0.53135 1.49737 0.495104 1.50498 0.458467 1.50498C0.421829 1.50498 0.385606 1.49737 0.352058 1.48265C0.318511 1.46792 0.288382 1.44639 0.263583 1.41942C0.2368 1.39528 0.215374 1.36579 0.200717 1.33285C0.186059 1.29991 0.178497 1.26427 0.178497 1.22822C0.178497 1.19216 0.186059 1.1565 0.200717 1.12356C0.215374 1.09062 0.2368 1.06113 0.263583 1.03699L0.646011 0.669266C1.12837 0.24025 1.75086 0.00223998 2.39639 0C3.07986 0.0019115 3.735 0.273256 4.21965 0.75516C4.70431 1.23706 4.97938 1.89065 4.98518 2.57409C4.987 2.9359 4.91338 3.2941 4.76902 3.62587C4.62467 3.95764 4.41275 4.25568 4.14678 4.50097L0.976974 7.3766H4.72777C4.76448 7.37755 4.80064 7.38573 4.83418 7.40066C4.86772 7.41559 4.89801 7.437 4.92328 7.46364C4.94855 7.49028 4.96831 7.52162 4.98146 7.55591C4.99461 7.59019 5.00089 7.62673 4.99991 7.66344C4.99805 7.73502 4.96878 7.80315 4.91814 7.85379C4.86751 7.90442 4.79935 7.93369 4.72777 7.93555H0.270922C0.232692 7.93877 0.194253 7.93313 0.158544 7.9191C0.122835 7.90507 0.0908145 7.88302 0.0649963 7.85464C0.0161348 7.79285 -0.00658814 7.7144 0.00165855 7.63606C0.00990523 7.55771 0.0484648 7.48569 0.109122 7.43543Z" fill="#F8F8F8"/>
</svg>
