<svg width="33" height="27" viewBox="0 0 33 27" fill="none" xmlns="http://www.w3.org/2000/svg">
<path d="M7.73653 27C10.0421 26.5796 20.4345 23.7274 23.1535 22.2908C25.8725 20.8542 33.3848 16.138 32.4948 13.9446C31.6049 11.7512 29.2923 12.9565 29.2923 12.9565C29.2923 12.9565 32.1515 10.4618 31.0513 8.33843C29.951 6.21509 26.4191 8.20528 26.4191 8.20528C26.4191 8.20528 29.1662 5.40219 27.9188 3.39097C26.6714 1.37975 23.4549 3.94458 23.4549 3.94458C23.4549 3.94458 26.0898 1.52691 24.3519 0.279538C22.2495 -1.22712 17.9188 3.7834 14.8003 5.14991C14.0996 5.45825 0 10.4127 0 10.4127L7.73653 27Z" fill="#D3766A"/>
</svg>
