<svg width="4" height="9" viewBox="0 0 4 9" fill="none" xmlns="http://www.w3.org/2000/svg">
<path d="M2.59565 7.23664C2.59565 7.23664 2.74583 8.3523 2.74583 8.88153C2.74583 8.92444 2.61711 8.95304 2.43832 8.9602C1.98714 9.04178 1.52221 8.99751 1.09454 8.83224C0.666864 8.66697 0.292972 8.3871 0.0138937 8.02332C-0.0218648 7.97326 0.0138941 7.91605 0.0925627 7.9518C0.762717 8.41026 1.56259 8.64094 2.37395 8.60976C2.40971 8.46673 2.05213 6.70741 2.13795 6.70026C2.5442 6.74069 2.94337 6.83447 3.32513 6.97917C3.08197 4.64772 2.45978 2.37348 2.25238 0.0491832C2.25708 0.0348749 2.26617 0.0224183 2.27837 0.0135862C2.29057 0.00475411 2.30525 0 2.32031 0C2.33537 0 2.35006 0.00475411 2.36226 0.0135862C2.37446 0.0224183 2.38355 0.0348749 2.38825 0.0491832C3.12529 2.466 3.61884 4.95046 3.86151 7.46549C3.89011 7.7015 2.80305 7.30815 2.59565 7.23664Z" fill="#263238"/>
</svg>
