<svg width="139" height="93" viewBox="0 0 139 93" fill="none" xmlns="http://www.w3.org/2000/svg">
<path d="M138.607 7.30842L138.81 84.8165C138.814 86.896 137.993 88.8921 136.527 90.3671C135.061 91.8421 133.07 92.6757 130.991 92.6849L8.05746 93C7.02759 93.0027 6.00727 92.8024 5.05491 92.4104C4.10255 92.0184 3.23683 91.4424 2.5073 90.7155C1.77776 89.9886 1.19873 89.1249 0.803338 88.174C0.407948 87.223 0.203964 86.2034 0.203047 85.1736L3.02734e-05 7.70044C-0.0027311 6.74194 0.183441 5.79229 0.547906 4.90578C0.912372 4.01927 1.44798 3.21328 2.12412 2.53389C2.80026 1.85451 3.60367 1.31504 4.48842 0.946324C5.37317 0.577611 6.32192 0.386889 7.28042 0.385053L131.285 3.0216e-05C132.246 -0.00273492 133.198 0.184309 134.087 0.550438C134.976 0.916567 135.784 1.45457 136.464 2.13359C137.144 2.8126 137.684 3.61926 138.052 4.50729C138.419 5.39531 138.608 6.34723 138.607 7.30842Z" fill="#DBDBDB"/>
</svg>
