<svg width="153" height="118" viewBox="0 0 153 118" fill="none" xmlns="http://www.w3.org/2000/svg">
<path d="M136.009 5.73811L152.816 81.6912C153.264 83.7277 152.886 85.8588 151.765 87.6172C150.644 89.3755 148.872 90.6176 146.837 91.0712L26.3657 117.771C25.3562 117.994 24.3125 118.016 23.2944 117.836C22.2763 117.656 21.3038 117.276 20.4325 116.72C19.5612 116.163 18.8083 115.44 18.2169 114.592C17.6254 113.744 17.2071 112.787 16.9857 111.777L0.172066 35.7962C-0.246375 33.8992 0.105462 31.9137 1.15024 30.2761C2.19502 28.6384 3.84725 27.4826 5.74384 27.0626L127.297 0.16634C129.191 -0.243923 131.17 0.111737 132.802 1.15566C134.434 2.19959 135.587 3.84698 136.009 5.73811Z" fill="#455A64"/>
</svg>
