<svg width="2" height="8" viewBox="0 0 2 8" fill="none" xmlns="http://www.w3.org/2000/svg">
<path d="M1.47208 0.736448L0.398622 1.37205C0.360383 1.39642 0.316711 1.41098 0.271495 1.41442C0.224835 1.41598 0.178609 1.40501 0.137623 1.38265C0.0966369 1.3603 0.0623869 1.32738 0.0384389 1.28731C0.0198908 1.25753 0.00770573 1.22424 0.00265116 1.18952C-0.00240342 1.15481 -0.000213059 1.11941 0.00907376 1.08557C0.0183606 1.05174 0.0345479 1.02021 0.0566183 0.992943C0.0786886 0.965673 0.106159 0.943257 0.13731 0.927122L1.60627 0.0302199C1.66669 -0.00116825 1.73678 -0.00841913 1.80235 0.00993911C1.86791 0.0282973 1.92404 0.0708809 1.95938 0.129081C1.99562 0.1882 2.00824 0.258814 1.99469 0.326824V7.3185C1.99469 7.35281 1.98793 7.38678 1.9748 7.41848C1.96167 7.45018 1.94243 7.479 1.91816 7.50327C1.8939 7.52753 1.86509 7.54678 1.83339 7.55991C1.80168 7.57304 1.76771 7.5798 1.73339 7.5798C1.66465 7.57801 1.59922 7.54991 1.5506 7.50129C1.50197 7.45266 1.47387 7.38724 1.47208 7.3185V0.736448Z" fill="#F8F8F8"/>
</svg>
