<svg width="5" height="8" viewBox="0 0 5 8" fill="none" xmlns="http://www.w3.org/2000/svg">
<path d="M0.080179 7.39059L3.73525 4.05717C4.1327 3.69462 4.36984 3.18903 4.39452 2.65163C4.41919 2.11423 4.22939 1.58906 3.86684 1.19161C3.50429 0.794164 2.99869 0.556997 2.46129 0.532321C1.92389 0.507644 1.3987 0.697463 1.00125 1.06001L0.621133 1.41091C0.596484 1.43771 0.566537 1.45911 0.533192 1.47375C0.499847 1.48839 0.463831 1.49595 0.427415 1.49595C0.390999 1.49595 0.354972 1.48839 0.321627 1.47375C0.288282 1.45911 0.258346 1.43771 0.233697 1.41091C0.207075 1.38692 0.18579 1.3576 0.171221 1.32486C0.156652 1.29212 0.149124 1.25667 0.149124 1.22084C0.149124 1.185 0.156652 1.14957 0.171221 1.11683C0.18579 1.08409 0.207075 1.05478 0.233697 1.03079L0.613816 0.672576C1.09147 0.242319 1.71078 0.00293557 2.35363 5.58781e-05C2.71082 -0.00232506 3.06442 0.0714072 3.39088 0.216362C3.71734 0.361316 4.00918 0.574162 4.24695 0.840717C4.68763 1.30655 4.93122 1.92467 4.9268 2.5659C4.9286 2.92552 4.85542 3.28159 4.71194 3.61135C4.56845 3.94112 4.35781 4.23736 4.09345 4.48117L0.942781 7.33212H4.72943C4.76591 7.33307 4.80185 7.3412 4.83519 7.35604C4.86853 7.37088 4.89862 7.39214 4.92374 7.41861C4.94885 7.44509 4.96851 7.47627 4.98158 7.51035C4.99465 7.54442 5.00087 7.58072 4.9999 7.61721C4.99805 7.68836 4.96897 7.7561 4.91864 7.80643C4.86831 7.85676 4.80058 7.88583 4.72943 7.88768H0.299485C0.261485 7.89088 0.223256 7.88529 0.187763 7.87135C0.15227 7.8574 0.120465 7.83549 0.0948024 7.80728C0.0661983 7.78105 0.0430948 7.7494 0.0268499 7.71416C0.010605 7.67892 0.00154056 7.64078 0.000179757 7.60199C-0.00118105 7.56321 0.00519551 7.52456 0.0189303 7.48826C0.032665 7.45197 0.0534834 7.41876 0.080179 7.39059Z" fill="#F8F8F8"/>
</svg>
