<svg width="18" height="26" viewBox="0 0 18 26" fill="none" xmlns="http://www.w3.org/2000/svg">
<path d="M12.6573 0.0411633C12.8472 0.0900082 13.0104 0.211483 13.1117 0.37944C13.213 0.547397 13.2444 0.748416 13.199 0.939232L12.8996 2.14378C14.814 2.78327 16.4941 3.97945 17.7249 5.57923C17.8301 5.68053 17.9076 5.80706 17.95 5.9468C17.9924 6.08654 17.9984 6.23482 17.9672 6.3775C17.9122 6.57776 17.78 6.74802 17.5996 6.85092C17.4192 6.95381 17.2054 6.98092 17.005 6.92631C16.9031 6.90839 16.8064 6.86852 16.7214 6.80944C16.6365 6.75036 16.5655 6.67348 16.5132 6.58418C15.5031 5.18859 14.1053 4.12041 12.4933 3.51224L10.3907 11.9155C14.7171 14.0181 16.2139 16.192 15.4798 19.1499C14.6815 22.3359 11.4456 23.9182 7.63954 23.1057L7.05508 25.4435C7.00782 25.6325 6.88741 25.795 6.72032 25.8953C6.55324 25.9955 6.35318 26.0253 6.16414 25.9781C5.97511 25.9308 5.8126 25.8104 5.71235 25.6433C5.6121 25.4762 5.58232 25.2762 5.62958 25.0871L6.22115 22.7137C3.75467 21.8968 1.63218 20.2786 0.191315 18.1165C0.120732 18.0349 0.0677194 17.9397 0.0355972 17.8368C0.00347497 17.7339 -0.00706953 17.6254 0.0046233 17.5182C0.0163161 17.411 0.0499893 17.3074 0.103548 17.2138C0.157107 17.1202 0.229408 17.0387 0.315907 16.9743C0.402405 16.9099 0.501244 16.8641 0.606265 16.8396C0.711286 16.8152 0.820231 16.8127 0.926271 16.8322C1.03231 16.8518 1.13316 16.893 1.22255 16.9533C1.31193 17.0136 1.38793 17.0917 1.44576 17.1828C2.64082 19.1318 4.4668 20.6132 6.62029 21.3808L8.75853 12.8279C4.48205 10.6896 3.05655 8.59414 3.7693 5.59347C4.48205 2.59281 7.74643 0.903584 11.4313 1.73037L11.7164 0.589993C11.7343 0.487831 11.7742 0.390791 11.8335 0.305659C11.8927 0.220528 11.9698 0.149344 12.0594 0.097086C12.149 0.0448285 12.2489 0.0127571 12.3522 0.00309852C12.4554 -0.00656007 12.5595 0.00642552 12.6573 0.0411633ZM9.15056 11.2883L11.1961 3.09172C8.26675 2.42174 5.91467 3.6833 5.37298 5.85005C4.86693 7.88851 5.50842 9.39241 9.15056 11.2883ZM10.013 13.4266L7.94601 21.7158C10.9681 22.4286 13.3558 21.1527 13.926 18.8648C14.4391 16.8192 13.705 15.294 10.013 13.4479V13.4266Z" fill="black"/>
</svg>
