<svg width="20" height="9" viewBox="0 0 20 9" fill="none" xmlns="http://www.w3.org/2000/svg">
<path d="M19.7724 8.62702L10.1322 8.8326L5.24229 8.91336C3.60499 8.91336 1.9677 8.91336 0.330397 8.91336H0V8.58297V0.367107V0H0.359766L10.0808 0.0440539C13.3187 0.0440539 16.5565 0.124817 19.8018 0.161528H20V0.359766C20 1.75477 19.9339 3.1351 19.9046 4.50808L19.7724 8.62702ZM19.7724 8.62702L19.6623 4.47137C19.6623 3.10573 19.5815 1.75477 19.5668 0.411161L19.7724 0.609399C16.5272 0.609399 13.2893 0.726873 10.0514 0.726873L0.359766 0.778268L0.719533 0.411161L0.653453 8.62702L0.359766 8.29663C1.96035 8.29663 3.5536 8.29662 5.16153 8.34068L9.99266 8.42144L19.7724 8.62702Z" fill="#EBEBEB"/>
</svg>
