<svg width="21" height="16" viewBox="0 0 21 16" fill="none" xmlns="http://www.w3.org/2000/svg">
<path d="M2.51353 15.7503C3.68765 15.7079 6.80684 12.5462 7.0261 6.88781C7.0261 6.88781 6.48148 11.9592 6.07832 12.6948C5.67516 13.4303 7.82535 10.9194 8.06583 6.32905C9.48187 7.38723 11.0419 8.23752 12.6987 8.85411C14.8206 9.50483 16.1574 9.5119 16.313 9.36337C16.4686 9.21483 13.3211 8.13974 12.4865 7.13537C12.4865 7.13537 18.1449 9.92214 20.7972 10.1838C21.1085 10.1838 21.6036 3.9313 17.579 1.17282C13.5545 -1.58565 7.01196 1.17283 5.23663 2.80669C5.23663 2.80669 3.18546 3.05424 0.900881 6.02491C-1.3837 8.99557 1.24746 15.8352 2.51353 15.7503Z" fill="#263238"/>
</svg>
