<svg width="140" height="21" viewBox="0 0 140 21" fill="none" xmlns="http://www.w3.org/2000/svg">
<path d="M139.902 20.6985L137.104 20.2858L137.202 19.5863L140 19.999L139.902 20.6985ZM135.006 19.999L132.207 19.5863L132.312 18.8868L135.11 19.2995L135.006 19.999ZM130.109 19.2995L127.311 18.8868L127.416 18.1873L130.214 18.6L130.109 19.2995ZM125.212 18.6L122.414 18.1873L122.519 17.4878L125.317 17.9005L125.212 18.6ZM120.316 17.9005L117.518 17.4878L117.616 16.7882L120.414 17.201L120.316 17.9005ZM115.419 17.201L112.621 16.7882L112.719 16.0887L115.517 16.5014L115.419 17.201ZM110.523 16.5014L107.725 16.0887L107.83 15.3892L110.628 15.8019L110.523 16.5014ZM105.626 15.8019L102.828 15.3892L102.933 14.6897L105.731 15.1024L105.626 15.8019ZM100.729 15.1024L97.9315 14.6897L98.0364 13.9902L100.834 14.4029L100.729 15.1024ZM95.8329 14.4029L93.0349 13.9902L93.1398 13.2907L95.9378 13.7104L95.8329 14.4029ZM90.9363 13.7034L88.1383 13.2907L88.2363 12.5912L91.0343 13.0039L90.9363 13.7034ZM86.0398 13.0039L83.2417 12.5912L83.3467 11.8917L86.1447 12.3044L86.0398 13.0039ZM81.1432 12.3044L78.3452 11.8917L78.4501 11.1922L81.2481 11.6049L81.1432 12.3044ZM76.2466 11.6049L73.4486 11.1922L73.5535 10.4927L76.3516 10.9124L76.2466 11.6049ZM71.3501 10.9054L68.552 10.4927L68.6569 9.79314L71.455 10.2059L71.3501 10.9054ZM66.4535 10.2059L63.6554 9.79314L63.7534 9.09364L66.5514 9.51335L66.4535 10.2059ZM61.5569 9.50634L58.7589 9.09364L58.8568 8.39412L61.6549 8.80683L61.5569 9.50634ZM56.6603 8.80683L53.8623 8.39412L53.9672 7.69461L56.7653 8.10732L56.6603 8.80683ZM51.7638 8.10732L48.9657 7.69461L49.0706 6.9951L51.8687 7.40781L51.7638 8.10732ZM46.8672 7.40781L44.0692 6.9951L44.1741 6.29559L46.9721 6.7153L46.8672 7.40781ZM41.9706 6.7083L39.1726 6.29559L39.2705 5.59608L42.0686 6.00879L41.9706 6.7083ZM37.0741 6.00879L34.276 5.59608L34.3809 4.89657L37.179 5.31628L37.0741 6.00879ZM32.1775 5.30928L29.3794 4.89657L29.4844 4.19706L32.2824 4.60977L32.1775 5.30928ZM27.2809 4.60977L24.4829 4.19706L24.5878 3.49755L27.3858 3.91726L27.2809 4.60977ZM22.3843 3.91026L19.5863 3.49755L19.6912 2.79804L22.4893 3.21075L22.3843 3.91026ZM17.4878 3.21075L14.6897 2.79804L14.7876 2.09853L17.5857 2.51824L17.4878 3.21075ZM12.5912 2.51124L9.79314 2.09853L9.89807 1.39902L12.6961 1.81173L12.5912 2.51124ZM7.69461 1.81173L4.89657 1.39902L5.00149 0.69951L7.79954 1.11922L7.69461 1.81173ZM2.79804 1.11222L0 0.69951L0.104922 0L2.90296 0.412709L2.79804 1.11222Z" fill="white"/>
</svg>
