<svg width="6" height="8" viewBox="0 0 6 8" fill="none" xmlns="http://www.w3.org/2000/svg">
<path d="M0.242313 2.2885C0.393524 1.73456 0.690084 1.23111 1.10125 0.830283C1.51242 0.429459 2.02326 0.145829 2.58088 0.00877786C2.6501 -0.00924533 2.72362 0.000721952 2.78556 0.0365055C2.84749 0.072289 2.89284 0.131018 2.91179 0.199987C2.92806 0.273931 2.91592 0.351282 2.87777 0.41668C2.83962 0.482079 2.77826 0.530735 2.70589 0.552973C2.24218 0.666706 1.81746 0.902728 1.476 1.23643C1.13453 1.57014 0.88882 1.98932 0.764458 2.45029C0.60278 2.9939 0.530742 3.56021 0.551188 4.12699C0.727523 3.79902 0.972527 3.51296 1.2695 3.28832C1.56648 3.06369 1.90843 2.90576 2.27201 2.82534C2.77366 2.71479 3.29676 2.75428 3.77614 2.93887C4.25552 3.12346 4.67001 3.44501 4.96797 3.86346C5.26593 4.2819 5.4342 4.77876 5.45183 5.29215C5.46946 5.80554 5.33567 6.31277 5.06712 6.75067C4.79857 7.18858 4.40711 7.53779 3.94152 7.75484C3.47593 7.97188 2.9568 8.04716 2.44874 7.97129C1.94068 7.89543 1.46616 7.67178 1.08429 7.3282C0.702414 6.98461 0.430071 6.53627 0.301157 6.03901C0.245013 5.87324 0.200782 5.70367 0.168791 5.53159C-0.0789087 4.46149 -0.0536386 3.34628 0.242313 2.2885ZM0.83798 5.86986C0.846175 5.91927 0.863647 5.96668 0.889463 6.00959C0.896312 6.03612 0.896312 6.06396 0.889463 6.09048C1.06857 6.60205 1.43953 7.02394 1.92397 7.26703C2.40841 7.51012 2.96838 7.55536 3.48556 7.39319C4.00274 7.23102 4.43662 6.87413 4.69552 6.39796C4.95442 5.92178 5.01806 5.36361 4.87299 4.84137C4.72793 4.31914 4.38551 3.87375 3.91811 3.59932C3.45071 3.32489 2.89494 3.24292 2.36822 3.37072C1.84149 3.49852 1.38508 3.82609 1.09542 4.28421C0.805756 4.74232 0.70552 5.2951 0.815919 5.82574L0.83798 5.86986Z" fill="#F8F8F8"/>
</svg>
