<svg width="4" height="8" viewBox="0 0 4 8" fill="none" xmlns="http://www.w3.org/2000/svg">
<path d="M1.47413 0.859825L0.489745 1.77554C0.454204 1.81225 0.409358 1.83862 0.360008 1.85186C0.310854 1.86218 0.259884 1.8599 0.21185 1.84522C0.163816 1.83054 0.120291 1.80395 0.0853036 1.76791C0.0583062 1.74161 0.0368439 1.71016 0.0221934 1.67543C0.00754284 1.64069 0 1.60339 0 1.56569C0 1.528 0.00754284 1.49068 0.0221934 1.45595C0.0368439 1.42122 0.0583062 1.38978 0.0853036 1.36347L1.42834 0.0814611C1.48119 0.0292675 1.55248 0 1.62675 0C1.70103 0 1.77232 0.0292675 1.82517 0.0814611C1.87468 0.136265 1.90424 0.206177 1.9091 0.279874L3.54214 7.65903C3.55807 7.73187 3.54454 7.80805 3.50451 7.87095C3.46448 7.93386 3.4012 7.97839 3.32847 7.9948C3.25581 8.00874 3.18056 7.99437 3.11814 7.95465C3.05572 7.91493 3.01085 7.85286 2.99271 7.78113L1.47413 0.859825Z" fill="#F8F8F8"/>
</svg>
